<svg width="83" height="85" viewBox="0 0 83 85" fill="none" xmlns="http://www.w3.org/2000/svg">
<g filter="url(#filter0_di_801_398)">
<path d="M68.6823 15.9066C66.9374 15.2722 65.0951 14.9476 63.2385 14.9476H59.3479C58.3288 14.9476 57.4798 14.1664 57.3951 13.1508L57.2948 11.9468C57.1321 9.99505 56.3707 8.14111 55.1147 6.6384C54.4069 5.79164 53.5571 5.07457 52.6033 4.5193L51.8585 4.08568C50.0061 3.00718 47.9365 2.35521 45.8003 2.1772L44.5095 2.06963C43.5344 1.98837 42.5546 1.97822 41.578 2.03926L38.5307 2.22971C36.2256 2.37378 33.9652 2.93112 31.8573 3.87513C29.6682 4.85547 27.6815 6.2359 25.9992 7.94546L24.9516 9.01001C23.6903 10.2917 22.6641 11.7852 21.92 13.4223C21.0137 15.416 20.5449 17.5807 20.5449 19.7707V21.3936C20.5449 21.6996 20.2969 21.9476 19.9909 21.9476C17.0671 21.9476 14.1834 22.6283 11.5682 23.9359L9.81991 24.8101C8.97374 25.2331 8.18845 25.7683 7.48526 26.4012C5.00657 28.632 3.73131 31.9053 4.04747 35.225L4.27326 37.5957C4.45128 39.465 5.11088 41.2562 6.18768 42.7945C7.39944 44.5256 9.1086 45.8731 11.0705 46.6578C12.3667 47.1763 13.7621 47.4476 15.1581 47.4476H46.5449H55.5449H65.7891C68.2467 47.4476 70.658 46.7797 72.7654 45.5153L72.942 45.4093C74.0044 44.7719 74.9636 43.9765 75.7867 43.0505C77.5752 41.0384 78.6488 38.4918 78.8407 35.8065L78.9521 34.2456C79.0139 33.3815 79.0087 32.514 78.9368 31.6508L78.7648 29.5864C78.6191 27.8379 78.2012 26.1229 77.5264 24.5033L77.3057 23.9735C76.4758 21.9819 75.2074 20.2032 73.5948 18.7697C72.2404 17.5659 70.6702 16.6295 68.9673 16.0103L68.6823 15.9066Z" fill="url(#paint0_linear_801_398)"/>
</g>
<g filter="url(#filter1_dd_801_398)">
<path d="M26.5734 51.9661C27.4387 51.9671 29.567 57.2399 29.5747 58.4818C29.5825 59.7237 28.9032 61.9917 26.609 62.006C24.3147 62.0203 23.5932 59.7184 23.5854 58.4765C23.5777 57.2346 25.2755 51.9645 26.5734 51.9661Z" fill="url(#paint1_linear_801_398)" style="mix-blend-mode:color-burn"/>
</g>
<g filter="url(#filter2_dd_801_398)">
<path d="M58.5734 51.9661C59.4387 51.9671 61.567 57.2399 61.5747 58.4818C61.5825 59.7237 60.9032 61.9917 58.609 62.006C56.3147 62.0203 55.5932 59.7184 55.5854 58.4765C55.5777 57.2346 57.2755 51.9645 58.5734 51.9661Z" fill="url(#paint2_linear_801_398)" style="mix-blend-mode:color-burn"/>
</g>
<g filter="url(#filter3_dd_801_398)">
<path d="M42.5734 51.9661C43.4387 51.9671 45.567 57.2399 45.5747 58.4818C45.5825 59.7237 44.9032 61.9917 42.609 62.006C40.3147 62.0203 39.5932 59.7184 39.5854 58.4765C39.5777 57.2346 41.2755 51.9645 42.5734 51.9661Z" fill="url(#paint3_linear_801_398)" style="mix-blend-mode:color-burn"/>
</g>
<g filter="url(#filter4_dd_801_398)">
<path d="M34.5734 64.9661C35.4387 64.9671 37.567 70.2399 37.5747 71.4818C37.5825 72.7237 36.9032 74.9917 34.609 75.006C32.3147 75.0203 31.5932 72.7184 31.5854 71.4765C31.5777 70.2346 33.2755 64.9645 34.5734 64.9661Z" fill="url(#paint4_linear_801_398)" style="mix-blend-mode:color-burn"/>
</g>
<g filter="url(#filter5_dd_801_398)">
<path d="M50.5734 64.9661C51.4387 64.9671 53.567 70.2399 53.5747 71.4818C53.5825 72.7237 52.9032 74.9917 50.609 75.006C48.3147 75.0203 47.5932 72.7184 47.5854 71.4765C47.5777 70.2346 49.2755 64.9645 50.5734 64.9661Z" fill="url(#paint5_linear_801_398)" style="mix-blend-mode:color-burn"/>
</g>
<defs>
<filter id="filter0_di_801_398" x="0" y="0" width="82.9949" height="53.4476" filterUnits="userSpaceOnUse" color-interpolation-filters="sRGB">
<feFlood flood-opacity="0" result="BackgroundImageFix"/>
<feColorMatrix in="SourceAlpha" type="matrix" values="0 0 0 0 0 0 0 0 0 0 0 0 0 0 0 0 0 0 127 0" result="hardAlpha"/>
<feOffset dy="2"/>
<feGaussianBlur stdDeviation="2"/>
<feColorMatrix type="matrix" values="0 0 0 0 0 0 0 0 0 0 0 0 0 0 0 0 0 0 0.51 0"/>
<feBlend mode="normal" in2="BackgroundImageFix" result="effect1_dropShadow_801_398"/>
<feBlend mode="normal" in="SourceGraphic" in2="effect1_dropShadow_801_398" result="shape"/>
<feColorMatrix in="SourceAlpha" type="matrix" values="0 0 0 0 0 0 0 0 0 0 0 0 0 0 0 0 0 0 127 0" result="hardAlpha"/>
<feOffset dy="1"/>
<feGaussianBlur stdDeviation="1"/>
<feComposite in2="hardAlpha" operator="arithmetic" k2="-1" k3="1"/>
<feColorMatrix type="matrix" values="0 0 0 0 0 0 0 0 0 0 0 0 0 0 0 0 0 0 0.3 0"/>
<feBlend mode="normal" in2="shape" result="effect2_innerShadow_801_398"/>
</filter>
<filter id="filter1_dd_801_398" x="15.5854" y="45.9661" width="21.9894" height="26.04" filterUnits="userSpaceOnUse" color-interpolation-filters="sRGB">
<feFlood flood-opacity="0" result="BackgroundImageFix"/>
<feColorMatrix in="SourceAlpha" type="matrix" values="0 0 0 0 0 0 0 0 0 0 0 0 0 0 0 0 0 0 127 0" result="hardAlpha"/>
<feMorphology radius="2" operator="dilate" in="SourceAlpha" result="effect1_dropShadow_801_398"/>
<feOffset dy="2"/>
<feGaussianBlur stdDeviation="3"/>
<feColorMatrix type="matrix" values="0 0 0 0 0 0 0 0 0 0 0 0 0 0 0 0 0 0 0.15 0"/>
<feBlend mode="normal" in2="BackgroundImageFix" result="effect1_dropShadow_801_398"/>
<feColorMatrix in="SourceAlpha" type="matrix" values="0 0 0 0 0 0 0 0 0 0 0 0 0 0 0 0 0 0 127 0" result="hardAlpha"/>
<feOffset dy="1"/>
<feGaussianBlur stdDeviation="1"/>
<feColorMatrix type="matrix" values="0 0 0 0 0 0 0 0 0 0 0 0 0 0 0 0 0 0 0.3 0"/>
<feBlend mode="normal" in2="effect1_dropShadow_801_398" result="effect2_dropShadow_801_398"/>
<feBlend mode="normal" in="SourceGraphic" in2="effect2_dropShadow_801_398" result="shape"/>
</filter>
<filter id="filter2_dd_801_398" x="47.5854" y="45.9661" width="21.9894" height="26.04" filterUnits="userSpaceOnUse" color-interpolation-filters="sRGB">
<feFlood flood-opacity="0" result="BackgroundImageFix"/>
<feColorMatrix in="SourceAlpha" type="matrix" values="0 0 0 0 0 0 0 0 0 0 0 0 0 0 0 0 0 0 127 0" result="hardAlpha"/>
<feMorphology radius="2" operator="dilate" in="SourceAlpha" result="effect1_dropShadow_801_398"/>
<feOffset dy="2"/>
<feGaussianBlur stdDeviation="3"/>
<feColorMatrix type="matrix" values="0 0 0 0 0 0 0 0 0 0 0 0 0 0 0 0 0 0 0.15 0"/>
<feBlend mode="normal" in2="BackgroundImageFix" result="effect1_dropShadow_801_398"/>
<feColorMatrix in="SourceAlpha" type="matrix" values="0 0 0 0 0 0 0 0 0 0 0 0 0 0 0 0 0 0 127 0" result="hardAlpha"/>
<feOffset dy="1"/>
<feGaussianBlur stdDeviation="1"/>
<feColorMatrix type="matrix" values="0 0 0 0 0 0 0 0 0 0 0 0 0 0 0 0 0 0 0.3 0"/>
<feBlend mode="normal" in2="effect1_dropShadow_801_398" result="effect2_dropShadow_801_398"/>
<feBlend mode="normal" in="SourceGraphic" in2="effect2_dropShadow_801_398" result="shape"/>
</filter>
<filter id="filter3_dd_801_398" x="31.5854" y="45.9661" width="21.9894" height="26.04" filterUnits="userSpaceOnUse" color-interpolation-filters="sRGB">
<feFlood flood-opacity="0" result="BackgroundImageFix"/>
<feColorMatrix in="SourceAlpha" type="matrix" values="0 0 0 0 0 0 0 0 0 0 0 0 0 0 0 0 0 0 127 0" result="hardAlpha"/>
<feMorphology radius="2" operator="dilate" in="SourceAlpha" result="effect1_dropShadow_801_398"/>
<feOffset dy="2"/>
<feGaussianBlur stdDeviation="3"/>
<feColorMatrix type="matrix" values="0 0 0 0 0 0 0 0 0 0 0 0 0 0 0 0 0 0 0.15 0"/>
<feBlend mode="normal" in2="BackgroundImageFix" result="effect1_dropShadow_801_398"/>
<feColorMatrix in="SourceAlpha" type="matrix" values="0 0 0 0 0 0 0 0 0 0 0 0 0 0 0 0 0 0 127 0" result="hardAlpha"/>
<feOffset dy="1"/>
<feGaussianBlur stdDeviation="1"/>
<feColorMatrix type="matrix" values="0 0 0 0 0 0 0 0 0 0 0 0 0 0 0 0 0 0 0.3 0"/>
<feBlend mode="normal" in2="effect1_dropShadow_801_398" result="effect2_dropShadow_801_398"/>
<feBlend mode="normal" in="SourceGraphic" in2="effect2_dropShadow_801_398" result="shape"/>
</filter>
<filter id="filter4_dd_801_398" x="23.5854" y="58.9661" width="21.9894" height="26.04" filterUnits="userSpaceOnUse" color-interpolation-filters="sRGB">
<feFlood flood-opacity="0" result="BackgroundImageFix"/>
<feColorMatrix in="SourceAlpha" type="matrix" values="0 0 0 0 0 0 0 0 0 0 0 0 0 0 0 0 0 0 127 0" result="hardAlpha"/>
<feMorphology radius="2" operator="dilate" in="SourceAlpha" result="effect1_dropShadow_801_398"/>
<feOffset dy="2"/>
<feGaussianBlur stdDeviation="3"/>
<feColorMatrix type="matrix" values="0 0 0 0 0 0 0 0 0 0 0 0 0 0 0 0 0 0 0.15 0"/>
<feBlend mode="normal" in2="BackgroundImageFix" result="effect1_dropShadow_801_398"/>
<feColorMatrix in="SourceAlpha" type="matrix" values="0 0 0 0 0 0 0 0 0 0 0 0 0 0 0 0 0 0 127 0" result="hardAlpha"/>
<feOffset dy="1"/>
<feGaussianBlur stdDeviation="1"/>
<feColorMatrix type="matrix" values="0 0 0 0 0 0 0 0 0 0 0 0 0 0 0 0 0 0 0.3 0"/>
<feBlend mode="normal" in2="effect1_dropShadow_801_398" result="effect2_dropShadow_801_398"/>
<feBlend mode="normal" in="SourceGraphic" in2="effect2_dropShadow_801_398" result="shape"/>
</filter>
<filter id="filter5_dd_801_398" x="39.5854" y="58.9661" width="21.9894" height="26.04" filterUnits="userSpaceOnUse" color-interpolation-filters="sRGB">
<feFlood flood-opacity="0" result="BackgroundImageFix"/>
<feColorMatrix in="SourceAlpha" type="matrix" values="0 0 0 0 0 0 0 0 0 0 0 0 0 0 0 0 0 0 127 0" result="hardAlpha"/>
<feMorphology radius="2" operator="dilate" in="SourceAlpha" result="effect1_dropShadow_801_398"/>
<feOffset dy="2"/>
<feGaussianBlur stdDeviation="3"/>
<feColorMatrix type="matrix" values="0 0 0 0 0 0 0 0 0 0 0 0 0 0 0 0 0 0 0.15 0"/>
<feBlend mode="normal" in2="BackgroundImageFix" result="effect1_dropShadow_801_398"/>
<feColorMatrix in="SourceAlpha" type="matrix" values="0 0 0 0 0 0 0 0 0 0 0 0 0 0 0 0 0 0 127 0" result="hardAlpha"/>
<feOffset dy="1"/>
<feGaussianBlur stdDeviation="1"/>
<feColorMatrix type="matrix" values="0 0 0 0 0 0 0 0 0 0 0 0 0 0 0 0 0 0 0.3 0"/>
<feBlend mode="normal" in2="effect1_dropShadow_801_398" result="effect2_dropShadow_801_398"/>
<feBlend mode="normal" in="SourceGraphic" in2="effect2_dropShadow_801_398" result="shape"/>
</filter>
<linearGradient id="paint0_linear_801_398" x1="41.2949" y1="1.94758" x2="41.2949" y2="47.4476" gradientUnits="userSpaceOnUse">
<stop stop-color="#8C8C8C"/>
<stop offset="0.528846" stop-color="#616161"/>
<stop offset="0.798077" stop-color="#2B2B2B"/>
</linearGradient>
<linearGradient id="paint1_linear_801_398" x1="23.5762" y1="57.0049" x2="29.5653" y2="56.9675" gradientUnits="userSpaceOnUse">
<stop offset="0.192308" stop-color="#D1E8FF"/>
<stop offset="0.788462" stop-color="#97C8FA"/>
</linearGradient>
<linearGradient id="paint2_linear_801_398" x1="55.5762" y1="57.0049" x2="61.5653" y2="56.9675" gradientUnits="userSpaceOnUse">
<stop offset="0.192308" stop-color="#D1E8FF"/>
<stop offset="0.788462" stop-color="#97C8FA"/>
</linearGradient>
<linearGradient id="paint3_linear_801_398" x1="39.5762" y1="57.0049" x2="45.5653" y2="56.9675" gradientUnits="userSpaceOnUse">
<stop offset="0.192308" stop-color="#D1E8FF"/>
<stop offset="0.788462" stop-color="#97C8FA"/>
</linearGradient>
<linearGradient id="paint4_linear_801_398" x1="31.5762" y1="70.0049" x2="37.5653" y2="69.9675" gradientUnits="userSpaceOnUse">
<stop offset="0.192308" stop-color="#D1E8FF"/>
<stop offset="0.788462" stop-color="#97C8FA"/>
</linearGradient>
<linearGradient id="paint5_linear_801_398" x1="47.5762" y1="70.0049" x2="53.5653" y2="69.9675" gradientUnits="userSpaceOnUse">
<stop offset="0.192308" stop-color="#D1E8FF"/>
<stop offset="0.788462" stop-color="#97C8FA"/>
</linearGradient>
</defs>
</svg>
