<svg width="91" height="72" viewBox="0 0 91 72" fill="none" xmlns="http://www.w3.org/2000/svg">
<g filter="url(#filter0_dd_801_391)">
<path d="M10.5 37.5H53.6094C56.4594 37.5 59.2325 36.5756 61.5125 34.8657C63.1483 33.6387 64.4761 32.0478 65.3906 30.2188L65.5 30C66.4864 28.0271 67 25.8517 67 23.6459V22.6552C67 19.3181 65.8642 16.0803 63.7795 13.4744L63.6866 13.3583C63.2297 12.7871 62.7252 12.2557 62.1785 11.7698C59.8089 9.66347 56.7487 8.5 53.5784 8.5H50.5" stroke="url(#paint0_linear_801_391)" stroke-width="5" stroke-linecap="round"/>
</g>
<g filter="url(#filter1_dd_801_391)">
<path d="M48.5 46.3859H72.9697C74.3688 46.3859 75.7401 45.9963 76.9303 45.2609L77.1972 45.0959C78.0345 44.5785 78.7372 43.87 79.2478 43.0286C79.839 42.0544 80.1516 40.9367 80.1516 39.7972V39.2261C80.1516 37.8659 79.8161 36.5266 79.1748 35.327L79 35" stroke="url(#paint1_linear_801_391)" stroke-width="5" stroke-linecap="round"/>
</g>
<g filter="url(#filter2_dd_801_391)">
<path d="M16.5314 46L36.5183 46.0467C37.8396 46.0498 39.1243 46.4813 40.1795 47.2766C40.9366 47.8472 41.5505 48.5862 41.9725 49.4352L42.023 49.5368C42.4782 50.4525 42.7139 51.4617 42.7115 52.4844L42.7105 52.9437C42.7069 54.4909 42.1768 55.9908 41.2074 57.1967L41.1642 57.2504C40.9518 57.5147 40.7173 57.7606 40.4633 57.9853C39.3624 58.9593 37.9423 59.4954 36.4725 59.4919L35.0452 59.4886" stroke="url(#paint2_linear_801_391)" stroke-width="5" stroke-linecap="round"/>
</g>
<defs>
<filter id="filter0_dd_801_391" x="0" y="0" width="77.5" height="50" filterUnits="userSpaceOnUse" color-interpolation-filters="sRGB">
<feFlood flood-opacity="0" result="BackgroundImageFix"/>
<feColorMatrix in="SourceAlpha" type="matrix" values="0 0 0 0 0 0 0 0 0 0 0 0 0 0 0 0 0 0 127 0" result="hardAlpha"/>
<feMorphology radius="2" operator="dilate" in="SourceAlpha" result="effect1_dropShadow_801_391"/>
<feOffset dy="2"/>
<feGaussianBlur stdDeviation="3"/>
<feColorMatrix type="matrix" values="0 0 0 0 0 0 0 0 0 0 0 0 0 0 0 0 0 0 0.15 0"/>
<feBlend mode="normal" in2="BackgroundImageFix" result="effect1_dropShadow_801_391"/>
<feColorMatrix in="SourceAlpha" type="matrix" values="0 0 0 0 0 0 0 0 0 0 0 0 0 0 0 0 0 0 127 0" result="hardAlpha"/>
<feOffset dy="1"/>
<feGaussianBlur stdDeviation="1"/>
<feColorMatrix type="matrix" values="0 0 0 0 0 0 0 0 0 0 0 0 0 0 0 0 0 0 0.3 0"/>
<feBlend mode="normal" in2="effect1_dropShadow_801_391" result="effect2_dropShadow_801_391"/>
<feBlend mode="normal" in="SourceGraphic" in2="effect2_dropShadow_801_391" result="shape"/>
</filter>
<filter id="filter1_dd_801_391" x="38" y="26.4995" width="52.6516" height="32.3864" filterUnits="userSpaceOnUse" color-interpolation-filters="sRGB">
<feFlood flood-opacity="0" result="BackgroundImageFix"/>
<feColorMatrix in="SourceAlpha" type="matrix" values="0 0 0 0 0 0 0 0 0 0 0 0 0 0 0 0 0 0 127 0" result="hardAlpha"/>
<feMorphology radius="2" operator="dilate" in="SourceAlpha" result="effect1_dropShadow_801_391"/>
<feOffset dy="2"/>
<feGaussianBlur stdDeviation="3"/>
<feColorMatrix type="matrix" values="0 0 0 0 0 0 0 0 0 0 0 0 0 0 0 0 0 0 0.15 0"/>
<feBlend mode="normal" in2="BackgroundImageFix" result="effect1_dropShadow_801_391"/>
<feColorMatrix in="SourceAlpha" type="matrix" values="0 0 0 0 0 0 0 0 0 0 0 0 0 0 0 0 0 0 127 0" result="hardAlpha"/>
<feOffset dy="1"/>
<feGaussianBlur stdDeviation="1"/>
<feColorMatrix type="matrix" values="0 0 0 0 0 0 0 0 0 0 0 0 0 0 0 0 0 0 0.3 0"/>
<feBlend mode="normal" in2="effect1_dropShadow_801_391" result="effect2_dropShadow_801_391"/>
<feBlend mode="normal" in="SourceGraphic" in2="effect2_dropShadow_801_391" result="shape"/>
</filter>
<filter id="filter2_dd_801_391" x="6.03137" y="37.5" width="47.1802" height="34.492" filterUnits="userSpaceOnUse" color-interpolation-filters="sRGB">
<feFlood flood-opacity="0" result="BackgroundImageFix"/>
<feColorMatrix in="SourceAlpha" type="matrix" values="0 0 0 0 0 0 0 0 0 0 0 0 0 0 0 0 0 0 127 0" result="hardAlpha"/>
<feMorphology radius="2" operator="dilate" in="SourceAlpha" result="effect1_dropShadow_801_391"/>
<feOffset dy="2"/>
<feGaussianBlur stdDeviation="3"/>
<feColorMatrix type="matrix" values="0 0 0 0 0 0 0 0 0 0 0 0 0 0 0 0 0 0 0.15 0"/>
<feBlend mode="normal" in2="BackgroundImageFix" result="effect1_dropShadow_801_391"/>
<feColorMatrix in="SourceAlpha" type="matrix" values="0 0 0 0 0 0 0 0 0 0 0 0 0 0 0 0 0 0 127 0" result="hardAlpha"/>
<feOffset dy="1"/>
<feGaussianBlur stdDeviation="1"/>
<feColorMatrix type="matrix" values="0 0 0 0 0 0 0 0 0 0 0 0 0 0 0 0 0 0 0.3 0"/>
<feBlend mode="normal" in2="effect1_dropShadow_801_391" result="effect2_dropShadow_801_391"/>
<feBlend mode="normal" in="SourceGraphic" in2="effect2_dropShadow_801_391" result="shape"/>
</filter>
<linearGradient id="paint0_linear_801_391" x1="38.75" y1="8.5" x2="38.75" y2="37.5" gradientUnits="userSpaceOnUse">
<stop offset="0.0432692" stop-color="#B2CBE4"/>
<stop offset="0.4999" stop-color="#C1DFFD"/>
<stop offset="1" stop-color="#B3C7DB"/>
</linearGradient>
<linearGradient id="paint1_linear_801_391" x1="48" y1="46" x2="76" y2="46.5" gradientUnits="userSpaceOnUse">
<stop stop-color="#DBEAF9"/>
<stop offset="0.5" stop-color="#B0C7DF"/>
<stop offset="1" stop-color="#97C2ED"/>
</linearGradient>
<linearGradient id="paint2_linear_801_391" x1="18.5" y1="43.5" x2="44" y2="60.5" gradientUnits="userSpaceOnUse">
<stop stop-color="#8CBDEF"/>
<stop offset="0.475962" stop-color="#ABCDF0"/>
<stop offset="1" stop-color="white"/>
</linearGradient>
</defs>
</svg>
