<svg width="95" height="81" viewBox="0 0 95 81" fill="none" xmlns="http://www.w3.org/2000/svg">
<g filter="url(#filter0_di_815_78)">
<path d="M56.5558 16.5199C55.4412 15.0893 53.8475 13.4634 52.4074 12.0871C50.1787 9.95714 48.0154 9.08702 49.2876 11.8952C51.4102 16.5808 53.5426 22.487 53.5529 27.631L53.5582 30.2657C53.5582 30.8724 53.5271 31.4475 53.4739 32.0056C53.0611 36.3306 51.6405 40.5502 49.4622 44.3093C48.8306 45.3991 47.7589 46.655 46.7039 47.7664C44.7371 49.8383 42.356 51.4517 39.8661 52.8522L38.9863 53.3471C35.8461 55.1135 32.4544 56.3899 28.9288 57.1322C25.09 57.9403 21.1435 58.1045 17.2509 57.6179L13.7681 57.1825C11.8224 56.7934 9.91984 56.213 8.0882 55.4498L4.27721 53.8619C4.16693 53.816 4.1118 53.793 4.08332 53.7978C4.0334 53.8062 3.99766 53.8507 4.00011 53.9012C4.00151 53.9301 4.03576 53.979 4.10427 54.0769L6.80312 57.9324C7.54405 58.9909 8.37605 59.9826 9.28965 60.8962C10.3223 61.9288 11.4544 62.8569 12.6695 63.6669L14.3533 64.7895C17.7758 67.0514 22.0773 68.3538 26.1554 68.9814C30.2336 69.609 34.4373 69.3612 38.5115 68.2529C42.5857 67.1447 46.4455 65.1991 49.8567 62.5342C53.2679 59.8694 56.1595 56.5408 58.3559 52.7503C60.5524 48.9599 62.008 44.7867 62.6345 40.4838C63.2609 36.1809 63.0451 31.8381 62.0002 27.7187C60.9553 23.5994 59.103 19.7894 56.5558 16.5199Z" fill="#F8AC5D"/>
</g>
<g filter="url(#filter1_di_815_78)">
<path d="M55.2546 55.0587H18.7942C17.8013 55.0587 16.8171 54.8728 15.8927 54.5105L15.7974 54.4732C14.4257 53.9357 13.2395 53.0115 12.383 51.8128C11.5941 50.7088 11.1149 49.4139 10.9949 48.0623L10.7605 45.4218C10.5686 43.2596 11.3066 41.118 12.7897 39.533C13.8479 38.402 15.2253 37.6199 16.7386 37.2904L16.8207 37.2726C17.3728 37.1524 17.9362 37.0917 18.5013 37.0917H22.2302C22.4819 37.0917 22.6859 36.8877 22.6859 36.636V35.5785C22.6859 34.0226 23.0251 32.4853 23.68 31.0739C24.2118 29.9279 24.9423 28.885 25.8377 27.9937L26.5861 27.2486C27.8113 26.029 29.2519 25.0471 30.8349 24.3525C32.343 23.6909 33.956 23.3008 35.5998 23.2001L37.8166 23.0644C38.5171 23.0215 39.2197 23.0287 39.9192 23.0858L40.8756 23.1638C42.396 23.288 43.8708 23.744 45.196 24.4998L45.7625 24.8229C46.4359 25.207 47.0375 25.7049 47.5406 26.2946C48.4493 27.3595 49.0017 28.6822 49.1204 30.077L49.1911 30.908C49.2513 31.6158 49.8433 32.1596 50.5537 32.1596H53.4072C54.7332 32.1596 56.0495 32.3871 57.2986 32.8321L57.5416 32.9186C58.7477 33.3483 59.8624 34.0004 60.828 34.8412C61.9963 35.8585 62.9184 37.1279 63.5247 38.5535L63.6639 38.8806C64.1525 40.0293 64.4553 41.2485 64.5611 42.4924L64.6829 43.9238C64.7349 44.5351 64.7386 45.1496 64.694 45.7614L64.6173 46.8133C64.4774 48.7319 63.6991 50.5484 62.4064 51.973C61.8218 52.6172 61.143 53.1692 60.393 53.61L60.2333 53.7039C58.7241 54.591 57.0053 55.0587 55.2546 55.0587Z" fill="url(#paint0_linear_815_78)" fill-opacity="0.95"/>
</g>
<g filter="url(#filter2_di_815_78)">
<path d="M79.2546 68.0587H42.7942C41.8013 68.0587 40.8171 67.8728 39.8927 67.5105L39.7974 67.4732C38.4257 66.9357 37.2395 66.0115 36.383 64.8128C35.5941 63.7088 35.1149 62.4139 34.9949 61.0623L34.7605 58.4218C34.5686 56.2596 35.3066 54.118 36.7897 52.533C37.8479 51.402 39.2253 50.6199 40.7386 50.2904L40.8207 50.2726C41.3728 50.1524 41.9362 50.0917 42.5013 50.0917H46.2302C46.4819 50.0917 46.6859 49.8877 46.6859 49.636V48.5785C46.6859 47.0226 47.0251 45.4853 47.68 44.0739C48.2118 42.9279 48.9423 41.885 49.8377 40.9937L50.5861 40.2486C51.8113 39.029 53.2519 38.0471 54.8349 37.3525C56.343 36.6909 57.956 36.3008 59.5998 36.2001L61.8166 36.0644C62.5171 36.0215 63.2197 36.0287 63.9192 36.0858L64.8756 36.1638C66.396 36.288 67.8708 36.744 69.196 37.4998L69.7625 37.8229C70.4359 38.207 71.0375 38.7049 71.5406 39.2946C72.4493 40.3595 73.0017 41.6822 73.1204 43.077L73.1911 43.908C73.2513 44.6158 73.8433 45.1596 74.5537 45.1596H77.4072C78.7332 45.1596 80.0495 45.3871 81.2986 45.8321L81.5416 45.9186C82.7477 46.3483 83.8624 47.0004 84.828 47.8412C85.9963 48.8585 86.9184 50.1279 87.5247 51.5535L87.6639 51.8806C88.1525 53.0293 88.4553 54.2485 88.5611 55.4924L88.6829 56.9238C88.7349 57.5351 88.7386 58.1496 88.694 58.7614L88.6173 59.8133C88.4774 61.7319 87.6991 63.5484 86.4064 64.973C85.8218 65.6172 85.143 66.1692 84.393 66.61L84.2333 66.7039C82.7241 67.591 81.0053 68.0587 79.2546 68.0587Z" fill="url(#paint1_linear_815_78)" fill-opacity="0.95"/>
</g>
<defs>
<filter id="filter0_di_815_78" x="0" y="8.11829" width="66.9846" height="67.2013" filterUnits="userSpaceOnUse" color-interpolation-filters="sRGB">
<feFlood flood-opacity="0" result="BackgroundImageFix"/>
<feColorMatrix in="SourceAlpha" type="matrix" values="0 0 0 0 0 0 0 0 0 0 0 0 0 0 0 0 0 0 127 0" result="hardAlpha"/>
<feOffset dy="2"/>
<feGaussianBlur stdDeviation="2"/>
<feColorMatrix type="matrix" values="0 0 0 0 0 0 0 0 0 0 0 0 0 0 0 0 0 0 0.46 0"/>
<feBlend mode="normal" in2="BackgroundImageFix" result="effect1_dropShadow_815_78"/>
<feBlend mode="normal" in="SourceGraphic" in2="effect1_dropShadow_815_78" result="shape"/>
<feColorMatrix in="SourceAlpha" type="matrix" values="0 0 0 0 0 0 0 0 0 0 0 0 0 0 0 0 0 0 127 0" result="hardAlpha"/>
<feOffset dy="1"/>
<feGaussianBlur stdDeviation="1"/>
<feComposite in2="hardAlpha" operator="arithmetic" k2="-1" k3="1"/>
<feColorMatrix type="matrix" values="0 0 0 0 0 0 0 0 0 0 0 0 0 0 0 0 0 0 0.3 0"/>
<feBlend mode="normal" in2="shape" result="effect2_innerShadow_815_78"/>
</filter>
<filter id="filter1_di_815_78" x="4.73065" y="19.0368" width="65.9943" height="44.0219" filterUnits="userSpaceOnUse" color-interpolation-filters="sRGB">
<feFlood flood-opacity="0" result="BackgroundImageFix"/>
<feColorMatrix in="SourceAlpha" type="matrix" values="0 0 0 0 0 0 0 0 0 0 0 0 0 0 0 0 0 0 127 0" result="hardAlpha"/>
<feOffset dy="2"/>
<feGaussianBlur stdDeviation="3"/>
<feColorMatrix type="matrix" values="0 0 0 0 0 0 0 0 0 0 0 0 0 0 0 0 0 0 0.15 0"/>
<feBlend mode="normal" in2="BackgroundImageFix" result="effect1_dropShadow_815_78"/>
<feBlend mode="normal" in="SourceGraphic" in2="effect1_dropShadow_815_78" result="shape"/>
<feColorMatrix in="SourceAlpha" type="matrix" values="0 0 0 0 0 0 0 0 0 0 0 0 0 0 0 0 0 0 127 0" result="hardAlpha"/>
<feOffset dy="1"/>
<feGaussianBlur stdDeviation="1"/>
<feComposite in2="hardAlpha" operator="arithmetic" k2="-1" k3="1"/>
<feColorMatrix type="matrix" values="0 0 0 0 0 0 0 0 0 0 0 0 0 0 0 0 0 0 0.3 0"/>
<feBlend mode="normal" in2="shape" result="effect2_innerShadow_815_78"/>
</filter>
<filter id="filter2_di_815_78" x="28.7307" y="32.0368" width="65.9943" height="44.0219" filterUnits="userSpaceOnUse" color-interpolation-filters="sRGB">
<feFlood flood-opacity="0" result="BackgroundImageFix"/>
<feColorMatrix in="SourceAlpha" type="matrix" values="0 0 0 0 0 0 0 0 0 0 0 0 0 0 0 0 0 0 127 0" result="hardAlpha"/>
<feOffset dy="2"/>
<feGaussianBlur stdDeviation="3"/>
<feColorMatrix type="matrix" values="0 0 0 0 0 0 0 0 0 0 0 0 0 0 0 0 0 0 0.15 0"/>
<feBlend mode="normal" in2="BackgroundImageFix" result="effect1_dropShadow_815_78"/>
<feBlend mode="normal" in="SourceGraphic" in2="effect1_dropShadow_815_78" result="shape"/>
<feColorMatrix in="SourceAlpha" type="matrix" values="0 0 0 0 0 0 0 0 0 0 0 0 0 0 0 0 0 0 127 0" result="hardAlpha"/>
<feOffset dy="1"/>
<feGaussianBlur stdDeviation="1"/>
<feComposite in2="hardAlpha" operator="arithmetic" k2="-1" k3="1"/>
<feColorMatrix type="matrix" values="0 0 0 0 0 0 0 0 0 0 0 0 0 0 0 0 0 0 0.3 0"/>
<feBlend mode="normal" in2="shape" result="effect2_innerShadow_815_78"/>
</filter>
<linearGradient id="paint0_linear_815_78" x1="37.61" y1="23" x2="37.61" y2="55.0587" gradientUnits="userSpaceOnUse">
<stop stop-color="#FFF7EE"/>
<stop offset="1" stop-color="#737373"/>
</linearGradient>
<linearGradient id="paint1_linear_815_78" x1="61.61" y1="36" x2="61.61" y2="68.0587" gradientUnits="userSpaceOnUse">
<stop stop-color="#D8D1CA"/>
<stop offset="1" stop-color="#737373"/>
</linearGradient>
</defs>
</svg>
