<svg width="83" height="83" viewBox="0 0 83 83" fill="none" xmlns="http://www.w3.org/2000/svg">
<g filter="url(#filter0_dd_866_433)">
<path d="M64.5449 50.9476L43.4256 50.9476C42.386 50.9476 41.36 51.1841 40.4254 51.6394L39.8412 51.9239C39.2738 52.2003 38.7781 52.6044 38.3931 53.1045L38.2945 53.2325C37.8084 53.8638 37.5449 54.6383 37.5449 55.435C37.5449 56.5228 38.0353 57.5526 38.8798 58.2381L39.1834 58.4846C39.3651 58.6321 39.5582 58.765 39.7609 58.882L39.9477 58.9898C41.0346 59.6173 42.2675 59.9476 43.5225 59.9476H45.4298" stroke="url(#paint0_linear_866_433)" stroke-width="2" stroke-linecap="round"/>
</g>
<g filter="url(#filter1_di_866_433)">
<path d="M68.6823 15.9066C66.9374 15.2721 65.0951 14.9476 63.2385 14.9476H59.3479C58.3288 14.9476 57.4798 14.1664 57.3951 13.1507L57.2948 11.9468C57.1322 9.99504 56.3707 8.1411 55.1147 6.63839C54.4069 5.79163 53.5571 5.07456 52.6033 4.51929L51.8585 4.08567C50.0061 3.00718 47.9365 2.35521 45.8003 2.17719L44.5095 2.06962C43.5344 1.98836 42.5546 1.97821 41.578 2.03925L38.5307 2.2297C36.2256 2.37377 33.9652 2.93111 31.8573 3.87512C29.6682 4.85546 27.6815 6.23589 25.9992 7.94545L24.9516 9.01C23.6903 10.2917 22.6641 11.7852 21.92 13.4223C21.0137 15.416 20.5449 17.5807 20.5449 19.7707V21.3936C20.5449 21.6996 20.2969 21.9476 19.9909 21.9476C17.0671 21.9476 14.1834 22.6283 11.5682 23.9359L9.81991 24.81C8.97374 25.2331 8.18845 25.7683 7.48526 26.4012C5.00657 28.632 3.73131 31.9052 4.04747 35.225L4.27326 37.5957C4.45128 39.465 5.11088 41.2562 6.18768 42.7945C7.39944 44.5255 9.1086 45.8731 11.0705 46.6578C12.3667 47.1763 13.7621 47.4476 15.1581 47.4476H46.5449H55.5449H65.7891C68.2467 47.4476 70.658 46.7797 72.7654 45.5153L72.942 45.4093C74.0044 44.7718 74.9636 43.9765 75.7867 43.0505C77.5752 41.0384 78.6488 38.4918 78.8406 35.8065L78.9521 34.2456C79.0139 33.3815 79.0087 32.514 78.9368 31.6508L78.7648 29.5863C78.6191 27.8379 78.2012 26.1229 77.5264 24.5033L77.3057 23.9735C76.4758 21.9819 75.2074 20.2031 73.5948 18.7697C72.2404 17.5659 70.6702 16.6295 68.9673 16.0103L68.6823 15.9066Z" fill="url(#paint1_linear_866_433)"/>
</g>
<g filter="url(#filter2_di_866_433)">
<path d="M57.0374 61.2918L56.8957 60.9992C56.7496 60.6978 56.6766 60.5471 56.5406 60.4703C56.4046 60.3935 56.2379 60.4088 55.9044 60.4394L55.3456 60.4906C54.5243 60.566 54.1137 60.6037 53.9489 60.353C53.7842 60.1024 53.9815 59.7404 54.3762 59.0163L54.6889 58.4426C54.829 58.1854 54.8991 58.0569 54.8972 57.9257C54.8964 57.8644 54.8842 57.8037 54.8614 57.7467C54.8125 57.6249 54.6984 57.5333 54.47 57.35C53.7989 56.8113 53.4633 56.542 53.4666 56.2981C53.468 56.1888 53.5052 56.083 53.5725 55.9969C53.7226 55.8047 54.1529 55.8047 55.0135 55.8047H55.6885C55.978 55.8047 56.1227 55.8047 56.2407 55.7346C56.3588 55.6645 56.428 55.5375 56.5665 55.2833L56.8617 54.7418C57.2872 53.9611 57.5 53.5708 57.8116 53.5845C58.1233 53.5982 58.301 54.0057 58.6564 54.8207L58.8237 55.2044C58.9507 55.4957 59.0142 55.6413 59.139 55.723C59.2638 55.8047 59.4226 55.8047 59.7404 55.8047H60.3284C61.0907 55.8047 61.4718 55.8047 61.6212 55.9746C61.6999 56.0641 61.744 56.1788 61.7456 56.2979C61.7487 56.5241 61.4659 56.7796 60.9003 57.2906C60.6779 57.4915 60.5667 57.592 60.5252 57.7175C60.5026 57.7859 60.4951 57.8584 60.5031 57.93C60.5178 58.0614 60.6059 58.1826 60.7821 58.425L61.0461 58.7883C61.5508 59.4828 61.8032 59.8301 61.6641 60.1031C61.525 60.3761 61.0957 60.3761 60.2371 60.3761H59.9604C59.6851 60.3761 59.5475 60.3761 59.4332 60.4405C59.3189 60.5049 59.2476 60.6227 59.105 60.8581L58.7927 61.3738C58.3724 62.0679 58.1622 62.415 57.8652 62.4011C57.5682 62.3873 57.3912 62.0221 57.0374 61.2918Z" fill="url(#paint2_linear_866_433)" style="mix-blend-mode:color-burn"/>
</g>
<g filter="url(#filter3_di_866_433)">
<path d="M25.0374 58.2918L24.8957 57.9992C24.7496 57.6978 24.6766 57.5471 24.5406 57.4703C24.4046 57.3935 24.2379 57.4088 23.9044 57.4394L23.3456 57.4906C22.5243 57.566 22.1137 57.6037 21.9489 57.353C21.7842 57.1024 21.9815 56.7404 22.3762 56.0163L22.6889 55.4426C22.829 55.1854 22.8991 55.0569 22.8972 54.9257C22.8964 54.8644 22.8842 54.8037 22.8614 54.7467C22.8125 54.6249 22.6984 54.5333 22.47 54.35C21.7989 53.8113 21.4633 53.542 21.4666 53.2981C21.468 53.1888 21.5052 53.083 21.5725 52.9969C21.7226 52.8047 22.1529 52.8047 23.0135 52.8047H23.6885C23.978 52.8047 24.1227 52.8047 24.2407 52.7346C24.3588 52.6645 24.428 52.5375 24.5665 52.2833L24.8617 51.7418C25.2872 50.9611 25.5 50.5708 25.8116 50.5845C26.1233 50.5982 26.301 51.0057 26.6564 51.8207L26.8237 52.2044C26.9507 52.4957 27.0142 52.6413 27.139 52.723C27.2638 52.8047 27.4226 52.8047 27.7404 52.8047H28.3284C29.0907 52.8047 29.4718 52.8047 29.6212 52.9746C29.6999 53.0641 29.744 53.1788 29.7456 53.2979C29.7487 53.5241 29.4659 53.7796 28.9003 54.2906C28.6779 54.4915 28.5667 54.592 28.5252 54.7175C28.5026 54.7859 28.4951 54.8584 28.5031 54.93C28.5178 55.0614 28.6059 55.1826 28.7821 55.425L29.0461 55.7883C29.5508 56.4828 29.8032 56.8301 29.6641 57.1031C29.525 57.3761 29.0957 57.3761 28.2371 57.3761H27.9604C27.6851 57.3761 27.5475 57.3761 27.4332 57.4405C27.3189 57.5049 27.2476 57.6227 27.105 57.8581L26.7927 58.3738C26.3724 59.0679 26.1622 59.415 25.8652 59.4011C25.5682 59.3873 25.3912 59.0221 25.0374 58.2918Z" fill="url(#paint3_linear_866_433)" style="mix-blend-mode:color-burn"/>
</g>
<g filter="url(#filter4_di_866_433)">
<path d="M42.0374 72.2918L41.8957 71.9992C41.7496 71.6978 41.6766 71.5471 41.5406 71.4703C41.4046 71.3935 41.2379 71.4088 40.9044 71.4394L40.3456 71.4906C39.5243 71.566 39.1137 71.6037 38.9489 71.353C38.7842 71.1024 38.9815 70.7404 39.3762 70.0163L39.6889 69.4426C39.829 69.1854 39.8991 69.0569 39.8972 68.9257C39.8964 68.8644 39.8842 68.8037 39.8614 68.7467C39.8125 68.6249 39.6984 68.5333 39.47 68.35C38.7989 67.8113 38.4633 67.542 38.4666 67.2981C38.468 67.1888 38.5052 67.083 38.5725 66.9969C38.7226 66.8047 39.1529 66.8047 40.0135 66.8047H40.6885C40.978 66.8047 41.1227 66.8047 41.2407 66.7346C41.3588 66.6645 41.428 66.5375 41.5665 66.2833L41.8617 65.7418C42.2872 64.9611 42.5 64.5708 42.8116 64.5845C43.1233 64.5982 43.301 65.0057 43.6564 65.8207L43.8237 66.2044C43.9507 66.4957 44.0142 66.6413 44.139 66.723C44.2638 66.8047 44.4226 66.8047 44.7404 66.8047H45.3284C46.0907 66.8047 46.4718 66.8047 46.6212 66.9746C46.6999 67.0641 46.744 67.1788 46.7456 67.2979C46.7487 67.5241 46.4659 67.7796 45.9003 68.2906C45.6779 68.4915 45.5667 68.592 45.5252 68.7175C45.5026 68.7859 45.4951 68.8584 45.5031 68.93C45.5178 69.0614 45.6059 69.1826 45.7821 69.425L46.0461 69.7883C46.5508 70.4828 46.8032 70.8301 46.6641 71.1031C46.525 71.3761 46.0957 71.3761 45.2371 71.3761H44.9604C44.6851 71.3761 44.5475 71.3761 44.4332 71.4405C44.3189 71.5049 44.2476 71.6227 44.105 71.8581L43.7927 72.3738C43.3724 73.0679 43.1622 73.415 42.8652 73.4011C42.5682 73.3873 42.3912 73.0221 42.0374 72.2918Z" fill="url(#paint4_linear_866_433)" style="mix-blend-mode:color-burn"/>
</g>
<g filter="url(#filter5_dd_866_433)">
<path d="M36.5449 63.9476H23.9715C23.3923 63.9476 22.819 63.8297 22.2868 63.6011L21.8424 63.4103C21.5475 63.2836 21.2848 63.0923 21.0737 62.8506C20.7327 62.4601 20.5449 61.9572 20.5449 61.4388C20.5449 60.9638 20.7019 60.5002 20.9915 60.1237L21.127 59.9476" stroke="url(#paint5_linear_866_433)" stroke-width="2" stroke-linecap="round"/>
</g>
<g filter="url(#filter6_dd_866_433)">
<path d="M47.5628 63.9476L58.9927 63.9743C59.7483 63.976 60.483 64.2228 61.0864 64.6776C61.5194 65.0039 61.8705 65.4266 62.1118 65.9121L62.1407 65.9702C62.401 66.4938 62.5358 67.071 62.5344 67.6558L62.5338 67.9184C62.5318 68.8032 62.2286 69.661 61.6743 70.3506L61.6496 70.3814C61.5281 70.5325 61.394 70.6731 61.2487 70.8016C60.6192 71.3586 59.8071 71.6652 58.9665 71.6632L58.1503 71.6613" stroke="url(#paint6_linear_866_433)" stroke-width="2" stroke-linecap="round"/>
</g>
<defs>
<filter id="filter0_dd_866_433" x="28.5449" y="43.9476" width="45" height="27" filterUnits="userSpaceOnUse" color-interpolation-filters="sRGB">
<feFlood flood-opacity="0" result="BackgroundImageFix"/>
<feColorMatrix in="SourceAlpha" type="matrix" values="0 0 0 0 0 0 0 0 0 0 0 0 0 0 0 0 0 0 127 0" result="hardAlpha"/>
<feMorphology radius="2" operator="dilate" in="SourceAlpha" result="effect1_dropShadow_866_433"/>
<feOffset dy="2"/>
<feGaussianBlur stdDeviation="3"/>
<feColorMatrix type="matrix" values="0 0 0 0 0 0 0 0 0 0 0 0 0 0 0 0 0 0 0.15 0"/>
<feBlend mode="normal" in2="BackgroundImageFix" result="effect1_dropShadow_866_433"/>
<feColorMatrix in="SourceAlpha" type="matrix" values="0 0 0 0 0 0 0 0 0 0 0 0 0 0 0 0 0 0 127 0" result="hardAlpha"/>
<feOffset dy="1"/>
<feGaussianBlur stdDeviation="1"/>
<feColorMatrix type="matrix" values="0 0 0 0 0 0 0 0 0 0 0 0 0 0 0 0 0 0 0.3 0"/>
<feBlend mode="normal" in2="effect1_dropShadow_866_433" result="effect2_dropShadow_866_433"/>
<feBlend mode="normal" in="SourceGraphic" in2="effect2_dropShadow_866_433" result="shape"/>
</filter>
<filter id="filter1_di_866_433" x="0" y="0" width="82.9949" height="53.4476" filterUnits="userSpaceOnUse" color-interpolation-filters="sRGB">
<feFlood flood-opacity="0" result="BackgroundImageFix"/>
<feColorMatrix in="SourceAlpha" type="matrix" values="0 0 0 0 0 0 0 0 0 0 0 0 0 0 0 0 0 0 127 0" result="hardAlpha"/>
<feOffset dy="2"/>
<feGaussianBlur stdDeviation="2"/>
<feColorMatrix type="matrix" values="0 0 0 0 0 0 0 0 0 0 0 0 0 0 0 0 0 0 0.51 0"/>
<feBlend mode="normal" in2="BackgroundImageFix" result="effect1_dropShadow_866_433"/>
<feBlend mode="normal" in="SourceGraphic" in2="effect1_dropShadow_866_433" result="shape"/>
<feColorMatrix in="SourceAlpha" type="matrix" values="0 0 0 0 0 0 0 0 0 0 0 0 0 0 0 0 0 0 127 0" result="hardAlpha"/>
<feOffset dy="1"/>
<feGaussianBlur stdDeviation="1"/>
<feComposite in2="hardAlpha" operator="arithmetic" k2="-1" k3="1"/>
<feColorMatrix type="matrix" values="0 0 0 0 0 0 0 0 0 0 0 0 0 0 0 0 0 0 0.3 0"/>
<feBlend mode="normal" in2="shape" result="effect2_innerShadow_866_433"/>
</filter>
<filter id="filter2_di_866_433" x="50.4666" y="51.5841" width="14.2791" height="14.8174" filterUnits="userSpaceOnUse" color-interpolation-filters="sRGB">
<feFlood flood-opacity="0" result="BackgroundImageFix"/>
<feColorMatrix in="SourceAlpha" type="matrix" values="0 0 0 0 0 0 0 0 0 0 0 0 0 0 0 0 0 0 127 0" result="hardAlpha"/>
<feOffset dy="1"/>
<feGaussianBlur stdDeviation="1.5"/>
<feColorMatrix type="matrix" values="0 0 0 0 0 0 0 0 0 0 0 0 0 0 0 0 0 0 0.3 0"/>
<feBlend mode="normal" in2="BackgroundImageFix" result="effect1_dropShadow_866_433"/>
<feBlend mode="normal" in="SourceGraphic" in2="effect1_dropShadow_866_433" result="shape"/>
<feColorMatrix in="SourceAlpha" type="matrix" values="0 0 0 0 0 0 0 0 0 0 0 0 0 0 0 0 0 0 127 0" result="hardAlpha"/>
<feOffset dy="4"/>
<feGaussianBlur stdDeviation="4"/>
<feComposite in2="hardAlpha" operator="arithmetic" k2="-1" k3="1"/>
<feColorMatrix type="matrix" values="0 0 0 0 0 0 0 0 0 0 0 0 0 0 0 0 0 0 0.15 0"/>
<feBlend mode="normal" in2="shape" result="effect2_innerShadow_866_433"/>
</filter>
<filter id="filter3_di_866_433" x="18.4666" y="48.5841" width="14.2791" height="14.8174" filterUnits="userSpaceOnUse" color-interpolation-filters="sRGB">
<feFlood flood-opacity="0" result="BackgroundImageFix"/>
<feColorMatrix in="SourceAlpha" type="matrix" values="0 0 0 0 0 0 0 0 0 0 0 0 0 0 0 0 0 0 127 0" result="hardAlpha"/>
<feOffset dy="1"/>
<feGaussianBlur stdDeviation="1.5"/>
<feColorMatrix type="matrix" values="0 0 0 0 0 0 0 0 0 0 0 0 0 0 0 0 0 0 0.3 0"/>
<feBlend mode="normal" in2="BackgroundImageFix" result="effect1_dropShadow_866_433"/>
<feBlend mode="normal" in="SourceGraphic" in2="effect1_dropShadow_866_433" result="shape"/>
<feColorMatrix in="SourceAlpha" type="matrix" values="0 0 0 0 0 0 0 0 0 0 0 0 0 0 0 0 0 0 127 0" result="hardAlpha"/>
<feOffset dy="4"/>
<feGaussianBlur stdDeviation="4"/>
<feComposite in2="hardAlpha" operator="arithmetic" k2="-1" k3="1"/>
<feColorMatrix type="matrix" values="0 0 0 0 0 0 0 0 0 0 0 0 0 0 0 0 0 0 0.15 0"/>
<feBlend mode="normal" in2="shape" result="effect2_innerShadow_866_433"/>
</filter>
<filter id="filter4_di_866_433" x="35.4666" y="62.5841" width="14.2791" height="14.8174" filterUnits="userSpaceOnUse" color-interpolation-filters="sRGB">
<feFlood flood-opacity="0" result="BackgroundImageFix"/>
<feColorMatrix in="SourceAlpha" type="matrix" values="0 0 0 0 0 0 0 0 0 0 0 0 0 0 0 0 0 0 127 0" result="hardAlpha"/>
<feOffset dy="1"/>
<feGaussianBlur stdDeviation="1.5"/>
<feColorMatrix type="matrix" values="0 0 0 0 0 0 0 0 0 0 0 0 0 0 0 0 0 0 0.3 0"/>
<feBlend mode="normal" in2="BackgroundImageFix" result="effect1_dropShadow_866_433"/>
<feBlend mode="normal" in="SourceGraphic" in2="effect1_dropShadow_866_433" result="shape"/>
<feColorMatrix in="SourceAlpha" type="matrix" values="0 0 0 0 0 0 0 0 0 0 0 0 0 0 0 0 0 0 127 0" result="hardAlpha"/>
<feOffset dy="4"/>
<feGaussianBlur stdDeviation="4"/>
<feComposite in2="hardAlpha" operator="arithmetic" k2="-1" k3="1"/>
<feColorMatrix type="matrix" values="0 0 0 0 0 0 0 0 0 0 0 0 0 0 0 0 0 0 0.15 0"/>
<feBlend mode="normal" in2="shape" result="effect2_innerShadow_866_433"/>
</filter>
<filter id="filter5_dd_866_433" x="11.5449" y="52.9475" width="34" height="22.0001" filterUnits="userSpaceOnUse" color-interpolation-filters="sRGB">
<feFlood flood-opacity="0" result="BackgroundImageFix"/>
<feColorMatrix in="SourceAlpha" type="matrix" values="0 0 0 0 0 0 0 0 0 0 0 0 0 0 0 0 0 0 127 0" result="hardAlpha"/>
<feMorphology radius="2" operator="dilate" in="SourceAlpha" result="effect1_dropShadow_866_433"/>
<feOffset dy="2"/>
<feGaussianBlur stdDeviation="3"/>
<feColorMatrix type="matrix" values="0 0 0 0 0 0 0 0 0 0 0 0 0 0 0 0 0 0 0.15 0"/>
<feBlend mode="normal" in2="BackgroundImageFix" result="effect1_dropShadow_866_433"/>
<feColorMatrix in="SourceAlpha" type="matrix" values="0 0 0 0 0 0 0 0 0 0 0 0 0 0 0 0 0 0 127 0" result="hardAlpha"/>
<feOffset dy="1"/>
<feGaussianBlur stdDeviation="1"/>
<feColorMatrix type="matrix" values="0 0 0 0 0 0 0 0 0 0 0 0 0 0 0 0 0 0 0.3 0"/>
<feBlend mode="normal" in2="effect1_dropShadow_866_433" result="effect2_dropShadow_866_433"/>
<feBlend mode="normal" in="SourceGraphic" in2="effect2_dropShadow_866_433" result="shape"/>
</filter>
<filter id="filter6_dd_866_433" x="38.5628" y="56.9476" width="32.9716" height="25.7156" filterUnits="userSpaceOnUse" color-interpolation-filters="sRGB">
<feFlood flood-opacity="0" result="BackgroundImageFix"/>
<feColorMatrix in="SourceAlpha" type="matrix" values="0 0 0 0 0 0 0 0 0 0 0 0 0 0 0 0 0 0 127 0" result="hardAlpha"/>
<feMorphology radius="2" operator="dilate" in="SourceAlpha" result="effect1_dropShadow_866_433"/>
<feOffset dy="2"/>
<feGaussianBlur stdDeviation="3"/>
<feColorMatrix type="matrix" values="0 0 0 0 0 0 0 0 0 0 0 0 0 0 0 0 0 0 0.15 0"/>
<feBlend mode="normal" in2="BackgroundImageFix" result="effect1_dropShadow_866_433"/>
<feColorMatrix in="SourceAlpha" type="matrix" values="0 0 0 0 0 0 0 0 0 0 0 0 0 0 0 0 0 0 127 0" result="hardAlpha"/>
<feOffset dy="1"/>
<feGaussianBlur stdDeviation="1"/>
<feColorMatrix type="matrix" values="0 0 0 0 0 0 0 0 0 0 0 0 0 0 0 0 0 0 0.3 0"/>
<feBlend mode="normal" in2="effect1_dropShadow_866_433" result="effect2_dropShadow_866_433"/>
<feBlend mode="normal" in="SourceGraphic" in2="effect2_dropShadow_866_433" result="shape"/>
</filter>
<linearGradient id="paint0_linear_866_433" x1="51.0449" y1="59.9476" x2="51.0449" y2="50.9476" gradientUnits="userSpaceOnUse">
<stop offset="0.0432692" stop-color="#B2CBE4"/>
<stop offset="0.4999" stop-color="#C1DFFD"/>
<stop offset="1" stop-color="#B3C7DB"/>
</linearGradient>
<linearGradient id="paint1_linear_866_433" x1="41.2949" y1="1.94757" x2="41.2949" y2="47.4476" gradientUnits="userSpaceOnUse">
<stop stop-color="#8C8C8C"/>
<stop offset="0.528846" stop-color="#616161"/>
<stop offset="0.798077" stop-color="#2B2B2B"/>
</linearGradient>
<linearGradient id="paint2_linear_866_433" x1="57.3724" y1="52.9476" x2="57.3724" y2="62.9476" gradientUnits="userSpaceOnUse">
<stop stop-color="white"/>
<stop offset="0.307692" stop-color="#D4E9FF"/>
<stop offset="0.692308" stop-color="#DFEFFF"/>
<stop offset="1" stop-color="#9FCEFF"/>
</linearGradient>
<linearGradient id="paint3_linear_866_433" x1="25.3724" y1="49.9476" x2="25.3724" y2="59.9476" gradientUnits="userSpaceOnUse">
<stop stop-color="white"/>
<stop offset="0.307692" stop-color="#D4E9FF"/>
<stop offset="0.692308" stop-color="#DFEFFF"/>
<stop offset="1" stop-color="#9FCEFF"/>
</linearGradient>
<linearGradient id="paint4_linear_866_433" x1="42.3724" y1="63.9476" x2="42.3724" y2="73.9476" gradientUnits="userSpaceOnUse">
<stop stop-color="white"/>
<stop offset="0.307692" stop-color="#D4E9FF"/>
<stop offset="0.692308" stop-color="#DFEFFF"/>
<stop offset="1" stop-color="#9FCEFF"/>
</linearGradient>
<linearGradient id="paint5_linear_866_433" x1="36.7976" y1="63.812" x2="22.6483" y2="64.1756" gradientUnits="userSpaceOnUse">
<stop stop-color="#DBEAF9"/>
<stop offset="0.5" stop-color="#B0C7DF"/>
<stop offset="1" stop-color="#97C2ED"/>
</linearGradient>
<linearGradient id="paint6_linear_866_433" x1="48.6886" y1="62.5179" x2="63.2713" y2="72.2397" gradientUnits="userSpaceOnUse">
<stop stop-color="#8CBDEF"/>
<stop offset="0.475962" stop-color="#ABCDF0"/>
<stop offset="1" stop-color="white"/>
</linearGradient>
</defs>
</svg>
