<svg width="83" height="78" viewBox="0 0 83 78" fill="none" xmlns="http://www.w3.org/2000/svg">
<g filter="url(#filter0_di_801_396)">
<path d="M68.6823 15.9066C66.9374 15.2722 65.0951 14.9476 63.2385 14.9476H59.3479C58.3288 14.9476 57.4798 14.1664 57.3951 13.1508L57.2948 11.9468C57.1321 9.99505 56.3707 8.14111 55.1147 6.6384C54.4069 5.79164 53.5571 5.07457 52.6033 4.5193L51.8585 4.08568C50.0061 3.00718 47.9365 2.35521 45.8003 2.1772L44.5095 2.06963C43.5344 1.98837 42.5546 1.97822 41.578 2.03926L38.5307 2.22971C36.2256 2.37378 33.9652 2.93112 31.8573 3.87513C29.6682 4.85547 27.6815 6.2359 25.9992 7.94546L24.9516 9.01001C23.6903 10.2917 22.6641 11.7852 21.92 13.4223C21.0137 15.416 20.5449 17.5807 20.5449 19.7707V21.3936C20.5449 21.6996 20.2969 21.9476 19.9909 21.9476C17.0671 21.9476 14.1834 22.6283 11.5682 23.9359L9.81991 24.8101C8.97374 25.2331 8.18845 25.7683 7.48526 26.4012C5.00657 28.632 3.73131 31.9053 4.04747 35.225L4.27326 37.5957C4.45128 39.465 5.11088 41.2562 6.18768 42.7945C7.39944 44.5256 9.1086 45.8731 11.0705 46.6578C12.3667 47.1763 13.7621 47.4476 15.1581 47.4476H46.5449H55.5449H65.7891C68.2467 47.4476 70.658 46.7797 72.7654 45.5153L72.942 45.4093C74.0044 44.7719 74.9636 43.9765 75.7867 43.0505C77.5752 41.0384 78.6488 38.4918 78.8407 35.8065L78.9521 34.2456C79.0139 33.3815 79.0087 32.514 78.9368 31.6508L78.7648 29.5864C78.6191 27.8379 78.2012 26.1229 77.5264 24.5033L77.3057 23.9735C76.4758 21.9819 75.2074 20.2032 73.5948 18.7697C72.2404 17.5659 70.6702 16.6295 68.9673 16.0103L68.6823 15.9066Z" fill="url(#paint0_linear_801_396)"/>
</g>
<g filter="url(#filter1_di_801_396)">
<path d="M53.0374 60.2918L52.8957 59.9992C52.7496 59.6978 52.6766 59.5471 52.5406 59.4703C52.4046 59.3935 52.2379 59.4088 51.9044 59.4394L51.3456 59.4907C50.5243 59.566 50.1137 59.6037 49.9489 59.353C49.7842 59.1024 49.9815 58.7404 50.3762 58.0163L50.6889 57.4426C50.829 57.1855 50.8991 57.0569 50.8972 56.9257C50.8964 56.8644 50.8842 56.8037 50.8614 56.7467C50.8125 56.6249 50.6984 56.5333 50.47 56.35C49.7989 55.8113 49.4633 55.542 49.4666 55.2981C49.468 55.1888 49.5052 55.0831 49.5725 54.9969C49.7226 54.8047 50.1529 54.8047 51.0135 54.8047H51.6885C51.978 54.8047 52.1227 54.8047 52.2407 54.7346C52.3588 54.6645 52.428 54.5375 52.5665 54.2833L52.8617 53.7418C53.2872 52.9611 53.5 52.5708 53.8116 52.5845C54.1233 52.5982 54.301 53.0057 54.6564 53.8207L54.8237 54.2044C54.9507 54.4957 55.0142 54.6413 55.139 54.723C55.2638 54.8047 55.4226 54.8047 55.7404 54.8047H56.3284C57.0907 54.8047 57.4718 54.8047 57.6212 54.9746C57.6999 55.0641 57.744 55.1788 57.7456 55.2979C57.7487 55.5241 57.4659 55.7796 56.9003 56.2906C56.6779 56.4916 56.5667 56.592 56.5252 56.7175C56.5026 56.7859 56.4951 56.8584 56.5031 56.93C56.5178 57.0614 56.6059 57.1826 56.7821 57.425L57.0461 57.7883C57.5508 58.4828 57.8032 58.8301 57.6641 59.1031C57.525 59.3762 57.0957 59.3762 56.2371 59.3762H55.9604C55.6851 59.3762 55.5475 59.3762 55.4332 59.4405C55.3189 59.5049 55.2476 59.6227 55.105 59.8581L54.7927 60.3738C54.3724 61.0679 54.1622 61.415 53.8652 61.4011C53.5682 61.3873 53.3912 61.0221 53.0374 60.2918Z" fill="url(#paint1_linear_801_396)" style="mix-blend-mode:color-burn"/>
</g>
<g filter="url(#filter2_di_801_396)">
<path d="M31.0374 60.2918L30.8957 59.9992C30.7496 59.6978 30.6766 59.5471 30.5406 59.4703C30.4046 59.3935 30.2379 59.4088 29.9044 59.4394L29.3456 59.4907C28.5243 59.566 28.1137 59.6037 27.9489 59.353C27.7842 59.1024 27.9815 58.7404 28.3762 58.0163L28.6889 57.4426C28.829 57.1855 28.8991 57.0569 28.8972 56.9257C28.8964 56.8644 28.8842 56.8037 28.8614 56.7467C28.8125 56.6249 28.6984 56.5333 28.47 56.35C27.7989 55.8113 27.4633 55.542 27.4666 55.2981C27.468 55.1888 27.5052 55.0831 27.5725 54.9969C27.7226 54.8047 28.1529 54.8047 29.0135 54.8047H29.6885C29.978 54.8047 30.1227 54.8047 30.2407 54.7346C30.3588 54.6645 30.428 54.5375 30.5665 54.2833L30.8617 53.7418C31.2872 52.9611 31.5 52.5708 31.8116 52.5845C32.1233 52.5982 32.301 53.0057 32.6564 53.8207L32.8237 54.2044C32.9507 54.4957 33.0142 54.6413 33.139 54.723C33.2638 54.8047 33.4226 54.8047 33.7404 54.8047H34.3284C35.0907 54.8047 35.4718 54.8047 35.6212 54.9746C35.6999 55.0641 35.744 55.1788 35.7456 55.2979C35.7487 55.5241 35.4659 55.7796 34.9003 56.2906C34.6779 56.4916 34.5667 56.592 34.5252 56.7175C34.5026 56.7859 34.4951 56.8584 34.5031 56.93C34.5178 57.0614 34.6059 57.1826 34.7821 57.425L35.0461 57.7883C35.5508 58.4828 35.8032 58.8301 35.6641 59.1031C35.525 59.3762 35.0957 59.3762 34.2371 59.3762H33.9604C33.6851 59.3762 33.5475 59.3762 33.4332 59.4405C33.3189 59.5049 33.2476 59.6227 33.105 59.8581L32.7927 60.3738C32.3724 61.0679 32.1622 61.415 31.8652 61.4011C31.5682 61.3873 31.3912 61.0221 31.0374 60.2918Z" fill="url(#paint2_linear_801_396)" style="mix-blend-mode:color-burn"/>
</g>
<g filter="url(#filter3_di_801_396)">
<path d="M42.0374 72.2918L41.8957 71.9992C41.7496 71.6978 41.6766 71.5471 41.5406 71.4703C41.4046 71.3935 41.2379 71.4088 40.9044 71.4394L40.3456 71.4907C39.5243 71.566 39.1137 71.6037 38.9489 71.353C38.7842 71.1024 38.9815 70.7404 39.3762 70.0163L39.6889 69.4426C39.829 69.1855 39.8991 69.0569 39.8972 68.9257C39.8964 68.8644 39.8842 68.8037 39.8614 68.7467C39.8125 68.6249 39.6984 68.5333 39.47 68.35C38.7989 67.8113 38.4633 67.542 38.4666 67.2981C38.468 67.1888 38.5052 67.0831 38.5725 66.9969C38.7226 66.8047 39.1529 66.8047 40.0135 66.8047H40.6885C40.978 66.8047 41.1227 66.8047 41.2407 66.7346C41.3588 66.6645 41.428 66.5375 41.5665 66.2833L41.8617 65.7418C42.2872 64.9611 42.5 64.5708 42.8116 64.5845C43.1233 64.5982 43.301 65.0057 43.6564 65.8207L43.8237 66.2044C43.9507 66.4957 44.0142 66.6413 44.139 66.723C44.2638 66.8047 44.4226 66.8047 44.7404 66.8047H45.3284C46.0907 66.8047 46.4718 66.8047 46.6212 66.9746C46.6999 67.0641 46.744 67.1788 46.7456 67.2979C46.7487 67.5241 46.4659 67.7796 45.9003 68.2906C45.6779 68.4916 45.5667 68.592 45.5252 68.7175C45.5026 68.7859 45.4951 68.8584 45.5031 68.93C45.5178 69.0614 45.6059 69.1826 45.7821 69.425L46.0461 69.7883C46.5508 70.4828 46.8032 70.8301 46.6641 71.1031C46.525 71.3762 46.0957 71.3762 45.2371 71.3762H44.9604C44.6851 71.3762 44.5475 71.3762 44.4332 71.4405C44.3189 71.5049 44.2476 71.6227 44.105 71.8581L43.7927 72.3738C43.3724 73.0679 43.1622 73.415 42.8652 73.4011C42.5682 73.3873 42.3912 73.0221 42.0374 72.2918Z" fill="url(#paint3_linear_801_396)" style="mix-blend-mode:color-burn"/>
</g>
<defs>
<filter id="filter0_di_801_396" x="0" y="0" width="82.9949" height="53.4476" filterUnits="userSpaceOnUse" color-interpolation-filters="sRGB">
<feFlood flood-opacity="0" result="BackgroundImageFix"/>
<feColorMatrix in="SourceAlpha" type="matrix" values="0 0 0 0 0 0 0 0 0 0 0 0 0 0 0 0 0 0 127 0" result="hardAlpha"/>
<feOffset dy="2"/>
<feGaussianBlur stdDeviation="2"/>
<feColorMatrix type="matrix" values="0 0 0 0 0 0 0 0 0 0 0 0 0 0 0 0 0 0 0.51 0"/>
<feBlend mode="normal" in2="BackgroundImageFix" result="effect1_dropShadow_801_396"/>
<feBlend mode="normal" in="SourceGraphic" in2="effect1_dropShadow_801_396" result="shape"/>
<feColorMatrix in="SourceAlpha" type="matrix" values="0 0 0 0 0 0 0 0 0 0 0 0 0 0 0 0 0 0 127 0" result="hardAlpha"/>
<feOffset dy="1"/>
<feGaussianBlur stdDeviation="1"/>
<feComposite in2="hardAlpha" operator="arithmetic" k2="-1" k3="1"/>
<feColorMatrix type="matrix" values="0 0 0 0 0 0 0 0 0 0 0 0 0 0 0 0 0 0 0.3 0"/>
<feBlend mode="normal" in2="shape" result="effect2_innerShadow_801_396"/>
</filter>
<filter id="filter1_di_801_396" x="46.4666" y="50.5841" width="14.2791" height="14.8174" filterUnits="userSpaceOnUse" color-interpolation-filters="sRGB">
<feFlood flood-opacity="0" result="BackgroundImageFix"/>
<feColorMatrix in="SourceAlpha" type="matrix" values="0 0 0 0 0 0 0 0 0 0 0 0 0 0 0 0 0 0 127 0" result="hardAlpha"/>
<feOffset dy="1"/>
<feGaussianBlur stdDeviation="1.5"/>
<feColorMatrix type="matrix" values="0 0 0 0 0 0 0 0 0 0 0 0 0 0 0 0 0 0 0.3 0"/>
<feBlend mode="normal" in2="BackgroundImageFix" result="effect1_dropShadow_801_396"/>
<feBlend mode="normal" in="SourceGraphic" in2="effect1_dropShadow_801_396" result="shape"/>
<feColorMatrix in="SourceAlpha" type="matrix" values="0 0 0 0 0 0 0 0 0 0 0 0 0 0 0 0 0 0 127 0" result="hardAlpha"/>
<feOffset dy="4"/>
<feGaussianBlur stdDeviation="4"/>
<feComposite in2="hardAlpha" operator="arithmetic" k2="-1" k3="1"/>
<feColorMatrix type="matrix" values="0 0 0 0 0 0 0 0 0 0 0 0 0 0 0 0 0 0 0.15 0"/>
<feBlend mode="normal" in2="shape" result="effect2_innerShadow_801_396"/>
</filter>
<filter id="filter2_di_801_396" x="24.4666" y="50.5841" width="14.2791" height="14.8174" filterUnits="userSpaceOnUse" color-interpolation-filters="sRGB">
<feFlood flood-opacity="0" result="BackgroundImageFix"/>
<feColorMatrix in="SourceAlpha" type="matrix" values="0 0 0 0 0 0 0 0 0 0 0 0 0 0 0 0 0 0 127 0" result="hardAlpha"/>
<feOffset dy="1"/>
<feGaussianBlur stdDeviation="1.5"/>
<feColorMatrix type="matrix" values="0 0 0 0 0 0 0 0 0 0 0 0 0 0 0 0 0 0 0.3 0"/>
<feBlend mode="normal" in2="BackgroundImageFix" result="effect1_dropShadow_801_396"/>
<feBlend mode="normal" in="SourceGraphic" in2="effect1_dropShadow_801_396" result="shape"/>
<feColorMatrix in="SourceAlpha" type="matrix" values="0 0 0 0 0 0 0 0 0 0 0 0 0 0 0 0 0 0 127 0" result="hardAlpha"/>
<feOffset dy="4"/>
<feGaussianBlur stdDeviation="4"/>
<feComposite in2="hardAlpha" operator="arithmetic" k2="-1" k3="1"/>
<feColorMatrix type="matrix" values="0 0 0 0 0 0 0 0 0 0 0 0 0 0 0 0 0 0 0.15 0"/>
<feBlend mode="normal" in2="shape" result="effect2_innerShadow_801_396"/>
</filter>
<filter id="filter3_di_801_396" x="35.4666" y="62.5841" width="14.2791" height="14.8174" filterUnits="userSpaceOnUse" color-interpolation-filters="sRGB">
<feFlood flood-opacity="0" result="BackgroundImageFix"/>
<feColorMatrix in="SourceAlpha" type="matrix" values="0 0 0 0 0 0 0 0 0 0 0 0 0 0 0 0 0 0 127 0" result="hardAlpha"/>
<feOffset dy="1"/>
<feGaussianBlur stdDeviation="1.5"/>
<feColorMatrix type="matrix" values="0 0 0 0 0 0 0 0 0 0 0 0 0 0 0 0 0 0 0.3 0"/>
<feBlend mode="normal" in2="BackgroundImageFix" result="effect1_dropShadow_801_396"/>
<feBlend mode="normal" in="SourceGraphic" in2="effect1_dropShadow_801_396" result="shape"/>
<feColorMatrix in="SourceAlpha" type="matrix" values="0 0 0 0 0 0 0 0 0 0 0 0 0 0 0 0 0 0 127 0" result="hardAlpha"/>
<feOffset dy="4"/>
<feGaussianBlur stdDeviation="4"/>
<feComposite in2="hardAlpha" operator="arithmetic" k2="-1" k3="1"/>
<feColorMatrix type="matrix" values="0 0 0 0 0 0 0 0 0 0 0 0 0 0 0 0 0 0 0.15 0"/>
<feBlend mode="normal" in2="shape" result="effect2_innerShadow_801_396"/>
</filter>
<linearGradient id="paint0_linear_801_396" x1="41.2949" y1="1.94758" x2="41.2949" y2="47.4476" gradientUnits="userSpaceOnUse">
<stop stop-color="#8C8C8C"/>
<stop offset="0.528846" stop-color="#616161"/>
<stop offset="0.798077" stop-color="#2B2B2B"/>
</linearGradient>
<linearGradient id="paint1_linear_801_396" x1="53.3724" y1="51.9476" x2="53.3724" y2="61.9476" gradientUnits="userSpaceOnUse">
<stop stop-color="white"/>
<stop offset="0.307692" stop-color="#D4E9FF"/>
<stop offset="0.692308" stop-color="#DFEFFF"/>
<stop offset="1" stop-color="#9FCEFF"/>
</linearGradient>
<linearGradient id="paint2_linear_801_396" x1="31.3724" y1="51.9476" x2="31.3724" y2="61.9476" gradientUnits="userSpaceOnUse">
<stop stop-color="white"/>
<stop offset="0.307692" stop-color="#D4E9FF"/>
<stop offset="0.692308" stop-color="#DFEFFF"/>
<stop offset="1" stop-color="#9FCEFF"/>
</linearGradient>
<linearGradient id="paint3_linear_801_396" x1="42.3724" y1="63.9476" x2="42.3724" y2="73.9476" gradientUnits="userSpaceOnUse">
<stop stop-color="white"/>
<stop offset="0.307692" stop-color="#D4E9FF"/>
<stop offset="0.692308" stop-color="#DFEFFF"/>
<stop offset="1" stop-color="#9FCEFF"/>
</linearGradient>
</defs>
</svg>
