<svg width="99" height="56" viewBox="0 0 99 56" fill="none" xmlns="http://www.w3.org/2000/svg">
<g filter="url(#filter0_di_797_399)">
<path d="M52 37H15C11.134 37 8 33.866 8 30C8 26.134 11.134 23 15 23H52C55.866 23 59 26.134 59 30C59 33.866 55.866 37 52 37Z" fill="#B4F0F9"/>
<path d="M70 20H44C40.134 20 37 16.866 37 13C37 9.13401 40.134 6 44 6H70C73.866 6 77 9.13401 77 13C77 16.866 73.866 20 70 20Z" fill="#D9FAFF"/>
<path d="M83.5 46H30.5C26.634 46 23.5 42.866 23.5 39C23.5 35.134 26.634 32 30.5 32H83.5C87.366 32 90.5 35.134 90.5 39C90.5 42.866 87.366 46 83.5 46Z" fill="#A6DAE2"/>
</g>
<defs>
<filter id="filter0_di_797_399" x="0" y="0" width="98.5" height="56" filterUnits="userSpaceOnUse" color-interpolation-filters="sRGB">
<feFlood flood-opacity="0" result="BackgroundImageFix"/>
<feColorMatrix in="SourceAlpha" type="matrix" values="0 0 0 0 0 0 0 0 0 0 0 0 0 0 0 0 0 0 127 0" result="hardAlpha"/>
<feMorphology radius="2" operator="dilate" in="SourceAlpha" result="effect1_dropShadow_797_399"/>
<feOffset dy="2"/>
<feGaussianBlur stdDeviation="3"/>
<feColorMatrix type="matrix" values="0 0 0 0 0 0 0 0 0 0 0 0 0 0 0 0 0 0 0.15 0"/>
<feBlend mode="normal" in2="BackgroundImageFix" result="effect1_dropShadow_797_399"/>
<feBlend mode="normal" in="SourceGraphic" in2="effect1_dropShadow_797_399" result="shape"/>
<feColorMatrix in="SourceAlpha" type="matrix" values="0 0 0 0 0 0 0 0 0 0 0 0 0 0 0 0 0 0 127 0" result="hardAlpha"/>
<feOffset dy="1"/>
<feGaussianBlur stdDeviation="1"/>
<feComposite in2="hardAlpha" operator="arithmetic" k2="-1" k3="1"/>
<feColorMatrix type="matrix" values="0 0 0 0 0 0 0 0 0 0 0 0 0 0 0 0 0 0 0.3 0"/>
<feBlend mode="normal" in2="shape" result="effect2_innerShadow_797_399"/>
</filter>
</defs>
</svg>
