<svg width="88" height="86" viewBox="0 0 88 86" fill="none" xmlns="http://www.w3.org/2000/svg">
<g filter="url(#filter0_di_801_390)">
<path d="M48.6625 54.1196C48.6625 54.2766 48.6625 54.3551 48.7079 54.4104C48.7532 54.4657 48.8302 54.4811 48.9841 54.5119L56.1625 55.9476L53.4356 62.6135C52.7424 64.3078 52.3959 65.1549 52.73 65.3829C53.0642 65.6109 53.7265 64.9792 55.0512 63.7158L63.3791 55.7737C64.2575 54.936 64.6967 54.5172 64.6399 54.0228C64.583 53.5284 64.0603 53.2201 63.0147 52.6036L57.6625 49.4476H48.6625V54.1196Z" fill="#F8AC5D"/>
<path d="M70.7999 17.9066C69.0551 17.2721 67.2128 16.9476 65.3562 16.9476H61.4656C60.4464 16.9476 59.5974 16.1664 59.5128 15.1507L59.4125 13.9468C59.2498 11.995 58.4884 10.1411 57.2323 8.63839C56.5245 7.79163 55.6747 7.07456 54.721 6.51929L53.9762 6.08567C52.1237 5.00718 50.0541 4.35521 47.918 4.17719L46.6272 4.06962C45.652 3.98836 44.6723 3.97821 43.6957 4.03925L40.6484 4.2297C38.3433 4.37377 36.0828 4.93111 33.9749 5.87512C31.7859 6.85546 29.7992 8.23589 28.1168 9.94545L27.0692 11.01C25.8079 12.2917 24.7818 13.7852 24.0377 15.4223C23.1314 17.416 22.6625 19.5807 22.6625 21.7707V23.29C22.6625 23.6532 22.3682 23.9476 22.005 23.9476H18.9941C18.1077 23.9476 17.2226 24.0153 16.3465 24.15L13.956 24.5178C12.1341 24.7981 10.4352 25.6088 9.07123 26.8488C6.92134 28.8032 5.7982 31.6434 6.0299 34.5396L6.43042 39.5461C6.5824 41.4459 7.23878 43.2708 8.33176 44.8322C9.52629 46.5387 11.1927 47.8596 13.1267 48.6332L13.2004 48.6627C14.4966 49.1812 15.8798 49.4476 17.2758 49.4476H48.6625H57.6625H67.9068C70.3644 49.4476 72.7757 48.7797 74.8831 47.5153L75.0597 47.4093C76.1221 46.7719 77.0813 45.9765 77.9044 45.0505C79.6929 43.0384 80.7665 40.4918 80.9583 37.8065L81.0698 36.2456C81.1315 35.3815 81.1264 34.514 81.0545 33.6508L80.8824 31.5863C80.7367 29.8379 80.3189 28.1229 79.6441 26.5033L79.4233 25.9735C78.5935 23.9819 77.3251 22.2031 75.7125 20.7697C74.3581 19.5659 72.7879 18.6295 71.0849 18.0103L70.7999 17.9066Z" fill="url(#paint0_linear_801_390)"/>
</g>
<g filter="url(#filter1_di_801_390)">
<path d="M21.8891 52.1408C21.5393 52.0478 21.3644 52.0013 21.2097 52.0639C21.0549 52.1266 20.9616 52.2817 20.7751 52.5919L16.0283 60.4863C15.7653 60.9237 15.6338 61.1424 15.6962 61.3533C15.7586 61.5642 15.9879 61.6762 16.4465 61.9002L20.9135 64.0818C21.2717 64.2567 21.4507 64.3441 21.5248 64.5093C21.5989 64.6745 21.5452 64.8664 21.4376 65.2502L18.6931 75.043C18.2118 76.7605 17.9711 77.6193 18.3258 77.8084C18.6806 77.9974 19.2593 77.3189 20.4168 75.9618L31.137 63.3934C31.5187 62.9458 31.7096 62.7221 31.6611 62.4833C31.6126 62.2446 31.3495 62.1131 30.8234 61.85L27.1406 60.0087C26.6014 59.739 26.3318 59.6042 26.2857 59.3608C26.2396 59.1174 26.4413 58.8934 26.8446 58.4453L29.3723 55.6366C29.8619 55.0926 30.1067 54.8207 30.0268 54.552C29.9469 54.2833 29.5933 54.1893 28.886 54.0012L21.8891 52.1408Z" fill="#F8AC5D"/>
</g>
<g filter="url(#filter2_di_801_390)">
<path d="M42.9193 19.1451C42.5667 19.0501 42.3904 19.0025 42.2345 19.0659C42.0786 19.1293 41.9854 19.2863 41.7991 19.6004L37.2131 27.3301C36.9553 27.7646 36.8264 27.9818 36.8884 28.1911C36.9504 28.4004 37.1767 28.5125 37.6295 28.7366L41.9308 30.8655C42.2851 31.0409 42.4622 31.1285 42.5356 31.2927C42.6091 31.4568 42.5564 31.6473 42.451 32.0283L39.823 41.532C39.3444 43.2625 39.1051 44.1278 39.4614 44.3154C39.8177 44.503 40.3957 43.8162 41.5519 42.4424L51.85 30.2063C52.2246 29.7611 52.4119 29.5385 52.3636 29.3017C52.3153 29.0648 52.0558 28.9333 51.5369 28.6703L48.0013 26.8787C47.4694 26.6092 47.2035 26.4745 47.1576 26.2329C47.1117 25.9914 47.3097 25.7685 47.7056 25.3227L50.1344 22.5876C50.6156 22.0457 50.8562 21.7748 50.7764 21.5078C50.6965 21.2409 50.3466 21.1466 49.6469 20.958L42.9193 19.1451Z" fill="#F8AC5D"/>
</g>
<defs>
<filter id="filter0_di_801_390" x="0" y="0" width="87.1125" height="73.4288" filterUnits="userSpaceOnUse" color-interpolation-filters="sRGB">
<feFlood flood-opacity="0" result="BackgroundImageFix"/>
<feColorMatrix in="SourceAlpha" type="matrix" values="0 0 0 0 0 0 0 0 0 0 0 0 0 0 0 0 0 0 127 0" result="hardAlpha"/>
<feOffset dy="2"/>
<feGaussianBlur stdDeviation="3"/>
<feColorMatrix type="matrix" values="0 0 0 0 0 0 0 0 0 0 0 0 0 0 0 0 0 0 0.15 0"/>
<feBlend mode="normal" in2="BackgroundImageFix" result="effect1_dropShadow_801_390"/>
<feBlend mode="normal" in="SourceGraphic" in2="effect1_dropShadow_801_390" result="shape"/>
<feColorMatrix in="SourceAlpha" type="matrix" values="0 0 0 0 0 0 0 0 0 0 0 0 0 0 0 0 0 0 127 0" result="hardAlpha"/>
<feOffset dy="1"/>
<feGaussianBlur stdDeviation="1"/>
<feComposite in2="hardAlpha" operator="arithmetic" k2="-1" k3="1"/>
<feColorMatrix type="matrix" values="0 0 0 0 0 0 0 0 0 0 0 0 0 0 0 0 0 0 0.3 0"/>
<feBlend mode="normal" in2="shape" result="effect2_innerShadow_801_390"/>
</filter>
<filter id="filter1_di_801_390" x="9.68091" y="48.0352" width="27.9876" height="37.8043" filterUnits="userSpaceOnUse" color-interpolation-filters="sRGB">
<feFlood flood-opacity="0" result="BackgroundImageFix"/>
<feColorMatrix in="SourceAlpha" type="matrix" values="0 0 0 0 0 0 0 0 0 0 0 0 0 0 0 0 0 0 127 0" result="hardAlpha"/>
<feOffset dy="2"/>
<feGaussianBlur stdDeviation="3"/>
<feColorMatrix type="matrix" values="0 0 0 0 0 0 0 0 0 0 0 0 0 0 0 0 0 0 0.15 0"/>
<feBlend mode="normal" in2="BackgroundImageFix" result="effect1_dropShadow_801_390"/>
<feBlend mode="normal" in="SourceGraphic" in2="effect1_dropShadow_801_390" result="shape"/>
<feColorMatrix in="SourceAlpha" type="matrix" values="0 0 0 0 0 0 0 0 0 0 0 0 0 0 0 0 0 0 127 0" result="hardAlpha"/>
<feOffset dy="1"/>
<feGaussianBlur stdDeviation="1"/>
<feComposite in2="hardAlpha" operator="arithmetic" k2="-1" k3="1"/>
<feColorMatrix type="matrix" values="0 0 0 0 0 0 0 0 0 0 0 0 0 0 0 0 0 0 0.3 0"/>
<feBlend mode="normal" in2="shape" result="effect2_innerShadow_801_390"/>
</filter>
<filter id="filter2_di_801_390" x="30.873" y="15.037" width="27.4981" height="37.3088" filterUnits="userSpaceOnUse" color-interpolation-filters="sRGB">
<feFlood flood-opacity="0" result="BackgroundImageFix"/>
<feColorMatrix in="SourceAlpha" type="matrix" values="0 0 0 0 0 0 0 0 0 0 0 0 0 0 0 0 0 0 127 0" result="hardAlpha"/>
<feOffset dy="2"/>
<feGaussianBlur stdDeviation="3"/>
<feColorMatrix type="matrix" values="0 0 0 0 0 0 0 0 0 0 0 0 0 0 0 0 0 0 0.15 0"/>
<feBlend mode="normal" in2="BackgroundImageFix" result="effect1_dropShadow_801_390"/>
<feBlend mode="normal" in="SourceGraphic" in2="effect1_dropShadow_801_390" result="shape"/>
<feColorMatrix in="SourceAlpha" type="matrix" values="0 0 0 0 0 0 0 0 0 0 0 0 0 0 0 0 0 0 127 0" result="hardAlpha"/>
<feOffset dy="1"/>
<feGaussianBlur stdDeviation="1"/>
<feComposite in2="hardAlpha" operator="arithmetic" k2="-1" k3="1"/>
<feColorMatrix type="matrix" values="0 0 0 0 0 0 0 0 0 0 0 0 0 0 0 0 0 0 0.3 0"/>
<feBlend mode="normal" in2="shape" result="effect2_innerShadow_801_390"/>
</filter>
<linearGradient id="paint0_linear_801_390" x1="43.4125" y1="3.94757" x2="43.4125" y2="66.9476" gradientUnits="userSpaceOnUse">
<stop stop-color="#C7C7C7"/>
<stop offset="0.528846" stop-color="#616161"/>
<stop offset="0.798077" stop-color="#363636"/>
</linearGradient>
</defs>
</svg>
