<svg width="83" height="91" viewBox="0 0 83 91" fill="none" xmlns="http://www.w3.org/2000/svg">
<g filter="url(#filter0_di_801_399)">
<path d="M46.5449 52.4476L54.0449 53.9476L49.5449 64.9476L61.2615 53.7737C62.1398 52.936 62.579 52.5172 62.5222 52.0228C62.4654 51.5284 61.9426 51.2201 60.897 50.6036L55.5449 47.4476H46.5449V52.4476Z" fill="#F8AC5D"/>
<path d="M68.6823 15.9066C66.9374 15.2722 65.0951 14.9476 63.2385 14.9476H59.3479C58.3288 14.9476 57.4798 14.1664 57.3951 13.1508L57.2948 11.9468C57.1321 9.99505 56.3707 8.14111 55.1147 6.6384C54.4069 5.79164 53.5571 5.07457 52.6033 4.5193L51.8585 4.08568C50.0061 3.00718 47.9365 2.35521 45.8003 2.1772L44.5095 2.06963C43.5344 1.98837 42.5546 1.97822 41.578 2.03926L38.5307 2.22971C36.2256 2.37378 33.9652 2.93112 31.8573 3.87513C29.6682 4.85547 27.6815 6.2359 25.9992 7.94546L24.9516 9.01001C23.6903 10.2917 22.6641 11.7852 21.92 13.4223C21.0137 15.416 20.5449 17.5807 20.5449 19.7707V21.3936C20.5449 21.6996 20.2969 21.9476 19.9909 21.9476C17.0671 21.9476 14.1834 22.6283 11.5682 23.9359L9.81991 24.8101C8.97374 25.2331 8.18845 25.7683 7.48526 26.4012C5.00657 28.632 3.73131 31.9053 4.04747 35.225L4.27326 37.5957C4.45128 39.465 5.11088 41.2562 6.18768 42.7945C7.39944 44.5256 9.1086 45.8731 11.0705 46.6578C12.3667 47.1763 13.7621 47.4476 15.1581 47.4476H46.5449H55.5449H65.7891C68.2467 47.4476 70.658 46.7797 72.7654 45.5153L72.942 45.4093C74.0044 44.7719 74.9636 43.9765 75.7867 43.0505C77.5752 41.0384 78.6488 38.4918 78.8407 35.8065L78.9521 34.2456C79.0139 33.3815 79.0087 32.514 78.9368 31.6508L78.7648 29.5864C78.6191 27.8379 78.2012 26.1229 77.5264 24.5033L77.3057 23.9735C76.4758 21.9819 75.2074 20.2032 73.5948 18.7697C72.2404 17.5659 70.6702 16.6295 68.9673 16.0103L68.6823 15.9066Z" fill="url(#paint0_linear_801_399)"/>
</g>
<g filter="url(#filter1_di_801_399)">
<path d="M19.2413 51.9476L14.6693 59.5512C14.1434 60.426 13.8804 60.8634 14.0052 61.2852C14.1299 61.7071 14.5885 61.9311 15.5057 62.379L19.7413 64.4476L15.5449 79.4214L30.0449 62.4214L24.2798 59.5388C24.1719 59.4849 24.118 59.458 24.1088 59.4093C24.0996 59.3606 24.1399 59.3158 24.2206 59.2262L28.5449 54.4214L19.2413 51.9476Z" fill="#F8AC5D"/>
</g>
<g filter="url(#filter2_di_801_399)">
<path d="M36.3782 21.9476L32.6933 27.9941C32.1567 28.8747 31.8884 29.315 32.014 29.7401C32.1396 30.1652 32.604 30.3891 33.533 30.8367L36.8025 32.4121L33.2418 44.9476L45.5449 30.7158L40.6925 28.322C40.5831 28.2681 40.5284 28.2411 40.5192 28.192C40.5099 28.143 40.551 28.098 40.6332 28.0079L44.2721 24.0185L36.3782 21.9476Z" fill="#F8AC5D"/>
</g>
<g filter="url(#filter3_dd_801_399)">
<path d="M42.0449 55.9719C43.0449 55.9719 45.5078 61.7623 45.5175 63.1268C45.5272 64.4913 44.7435 66.9842 42.092 67.0031C39.4404 67.0219 38.6051 64.4937 38.5954 63.1292C38.5857 61.7647 40.5449 55.9719 42.0449 55.9719Z" fill="url(#paint1_linear_801_399)" style="mix-blend-mode:color-burn"/>
</g>
<g filter="url(#filter4_dd_801_399)">
<path d="M34.045 68.9963C35.045 68.9963 37.5079 74.7867 37.5177 76.1512C37.5274 77.5157 36.7437 80.0085 34.0921 80.0274C31.4406 80.0463 30.6053 77.5181 30.5956 76.1536C30.5859 74.7891 32.545 68.9963 34.045 68.9963Z" fill="url(#paint2_linear_801_399)" style="mix-blend-mode:color-burn"/>
</g>
<g filter="url(#filter5_dd_801_399)">
<path d="M49.045 67.9963C50.045 67.9963 52.5079 73.7867 52.5177 75.1512C52.5274 76.5157 51.7437 79.0085 49.0921 79.0274C46.4406 79.0463 45.6053 76.5181 45.5956 75.1536C45.5859 73.7891 47.545 67.9963 49.045 67.9963Z" fill="url(#paint3_linear_801_399)" style="mix-blend-mode:color-burn"/>
</g>
<defs>
<filter id="filter0_di_801_399" x="0" y="0" width="82.9949" height="70.9476" filterUnits="userSpaceOnUse" color-interpolation-filters="sRGB">
<feFlood flood-opacity="0" result="BackgroundImageFix"/>
<feColorMatrix in="SourceAlpha" type="matrix" values="0 0 0 0 0 0 0 0 0 0 0 0 0 0 0 0 0 0 127 0" result="hardAlpha"/>
<feOffset dy="2"/>
<feGaussianBlur stdDeviation="2"/>
<feColorMatrix type="matrix" values="0 0 0 0 0 0 0 0 0 0 0 0 0 0 0 0 0 0 0.51 0"/>
<feBlend mode="normal" in2="BackgroundImageFix" result="effect1_dropShadow_801_399"/>
<feBlend mode="normal" in="SourceGraphic" in2="effect1_dropShadow_801_399" result="shape"/>
<feColorMatrix in="SourceAlpha" type="matrix" values="0 0 0 0 0 0 0 0 0 0 0 0 0 0 0 0 0 0 127 0" result="hardAlpha"/>
<feOffset dy="1"/>
<feGaussianBlur stdDeviation="1"/>
<feComposite in2="hardAlpha" operator="arithmetic" k2="-1" k3="1"/>
<feColorMatrix type="matrix" values="0 0 0 0 0 0 0 0 0 0 0 0 0 0 0 0 0 0 0.3 0"/>
<feBlend mode="normal" in2="shape" result="effect2_innerShadow_801_399"/>
</filter>
<filter id="filter1_di_801_399" x="7.97449" y="47.9476" width="28.0704" height="39.4738" filterUnits="userSpaceOnUse" color-interpolation-filters="sRGB">
<feFlood flood-opacity="0" result="BackgroundImageFix"/>
<feColorMatrix in="SourceAlpha" type="matrix" values="0 0 0 0 0 0 0 0 0 0 0 0 0 0 0 0 0 0 127 0" result="hardAlpha"/>
<feOffset dy="2"/>
<feGaussianBlur stdDeviation="3"/>
<feColorMatrix type="matrix" values="0 0 0 0 0 0 0 0 0 0 0 0 0 0 0 0 0 0 0.15 0"/>
<feBlend mode="normal" in2="BackgroundImageFix" result="effect1_dropShadow_801_399"/>
<feBlend mode="normal" in="SourceGraphic" in2="effect1_dropShadow_801_399" result="shape"/>
<feColorMatrix in="SourceAlpha" type="matrix" values="0 0 0 0 0 0 0 0 0 0 0 0 0 0 0 0 0 0 127 0" result="hardAlpha"/>
<feOffset dy="1"/>
<feGaussianBlur stdDeviation="1"/>
<feComposite in2="hardAlpha" operator="arithmetic" k2="-1" k3="1"/>
<feColorMatrix type="matrix" values="0 0 0 0 0 0 0 0 0 0 0 0 0 0 0 0 0 0 0.3 0"/>
<feBlend mode="normal" in2="shape" result="effect2_innerShadow_801_399"/>
</filter>
<filter id="filter2_di_801_399" x="25.9834" y="17.9476" width="25.5615" height="35" filterUnits="userSpaceOnUse" color-interpolation-filters="sRGB">
<feFlood flood-opacity="0" result="BackgroundImageFix"/>
<feColorMatrix in="SourceAlpha" type="matrix" values="0 0 0 0 0 0 0 0 0 0 0 0 0 0 0 0 0 0 127 0" result="hardAlpha"/>
<feOffset dy="2"/>
<feGaussianBlur stdDeviation="3"/>
<feColorMatrix type="matrix" values="0 0 0 0 0 0 0 0 0 0 0 0 0 0 0 0 0 0 0.15 0"/>
<feBlend mode="normal" in2="BackgroundImageFix" result="effect1_dropShadow_801_399"/>
<feBlend mode="normal" in="SourceGraphic" in2="effect1_dropShadow_801_399" result="shape"/>
<feColorMatrix in="SourceAlpha" type="matrix" values="0 0 0 0 0 0 0 0 0 0 0 0 0 0 0 0 0 0 127 0" result="hardAlpha"/>
<feOffset dy="1"/>
<feGaussianBlur stdDeviation="1"/>
<feComposite in2="hardAlpha" operator="arithmetic" k2="-1" k3="1"/>
<feColorMatrix type="matrix" values="0 0 0 0 0 0 0 0 0 0 0 0 0 0 0 0 0 0 0.3 0"/>
<feBlend mode="normal" in2="shape" result="effect2_innerShadow_801_399"/>
</filter>
<filter id="filter3_dd_801_399" x="30.5954" y="49.9719" width="22.9222" height="27.0312" filterUnits="userSpaceOnUse" color-interpolation-filters="sRGB">
<feFlood flood-opacity="0" result="BackgroundImageFix"/>
<feColorMatrix in="SourceAlpha" type="matrix" values="0 0 0 0 0 0 0 0 0 0 0 0 0 0 0 0 0 0 127 0" result="hardAlpha"/>
<feMorphology radius="2" operator="dilate" in="SourceAlpha" result="effect1_dropShadow_801_399"/>
<feOffset dy="2"/>
<feGaussianBlur stdDeviation="3"/>
<feColorMatrix type="matrix" values="0 0 0 0 0 0 0 0 0 0 0 0 0 0 0 0 0 0 0.15 0"/>
<feBlend mode="normal" in2="BackgroundImageFix" result="effect1_dropShadow_801_399"/>
<feColorMatrix in="SourceAlpha" type="matrix" values="0 0 0 0 0 0 0 0 0 0 0 0 0 0 0 0 0 0 127 0" result="hardAlpha"/>
<feOffset dy="1"/>
<feGaussianBlur stdDeviation="1"/>
<feColorMatrix type="matrix" values="0 0 0 0 0 0 0 0 0 0 0 0 0 0 0 0 0 0 0.3 0"/>
<feBlend mode="normal" in2="effect1_dropShadow_801_399" result="effect2_dropShadow_801_399"/>
<feBlend mode="normal" in="SourceGraphic" in2="effect2_dropShadow_801_399" result="shape"/>
</filter>
<filter id="filter4_dd_801_399" x="22.5956" y="62.9963" width="22.9222" height="27.0312" filterUnits="userSpaceOnUse" color-interpolation-filters="sRGB">
<feFlood flood-opacity="0" result="BackgroundImageFix"/>
<feColorMatrix in="SourceAlpha" type="matrix" values="0 0 0 0 0 0 0 0 0 0 0 0 0 0 0 0 0 0 127 0" result="hardAlpha"/>
<feMorphology radius="2" operator="dilate" in="SourceAlpha" result="effect1_dropShadow_801_399"/>
<feOffset dy="2"/>
<feGaussianBlur stdDeviation="3"/>
<feColorMatrix type="matrix" values="0 0 0 0 0 0 0 0 0 0 0 0 0 0 0 0 0 0 0.15 0"/>
<feBlend mode="normal" in2="BackgroundImageFix" result="effect1_dropShadow_801_399"/>
<feColorMatrix in="SourceAlpha" type="matrix" values="0 0 0 0 0 0 0 0 0 0 0 0 0 0 0 0 0 0 127 0" result="hardAlpha"/>
<feOffset dy="1"/>
<feGaussianBlur stdDeviation="1"/>
<feColorMatrix type="matrix" values="0 0 0 0 0 0 0 0 0 0 0 0 0 0 0 0 0 0 0.3 0"/>
<feBlend mode="normal" in2="effect1_dropShadow_801_399" result="effect2_dropShadow_801_399"/>
<feBlend mode="normal" in="SourceGraphic" in2="effect2_dropShadow_801_399" result="shape"/>
</filter>
<filter id="filter5_dd_801_399" x="37.5956" y="61.9963" width="22.9222" height="27.0312" filterUnits="userSpaceOnUse" color-interpolation-filters="sRGB">
<feFlood flood-opacity="0" result="BackgroundImageFix"/>
<feColorMatrix in="SourceAlpha" type="matrix" values="0 0 0 0 0 0 0 0 0 0 0 0 0 0 0 0 0 0 127 0" result="hardAlpha"/>
<feMorphology radius="2" operator="dilate" in="SourceAlpha" result="effect1_dropShadow_801_399"/>
<feOffset dy="2"/>
<feGaussianBlur stdDeviation="3"/>
<feColorMatrix type="matrix" values="0 0 0 0 0 0 0 0 0 0 0 0 0 0 0 0 0 0 0.15 0"/>
<feBlend mode="normal" in2="BackgroundImageFix" result="effect1_dropShadow_801_399"/>
<feColorMatrix in="SourceAlpha" type="matrix" values="0 0 0 0 0 0 0 0 0 0 0 0 0 0 0 0 0 0 127 0" result="hardAlpha"/>
<feOffset dy="1"/>
<feGaussianBlur stdDeviation="1"/>
<feColorMatrix type="matrix" values="0 0 0 0 0 0 0 0 0 0 0 0 0 0 0 0 0 0 0.3 0"/>
<feBlend mode="normal" in2="effect1_dropShadow_801_399" result="effect2_dropShadow_801_399"/>
<feBlend mode="normal" in="SourceGraphic" in2="effect2_dropShadow_801_399" result="shape"/>
</filter>
<linearGradient id="paint0_linear_801_399" x1="41.2949" y1="1.94758" x2="41.2949" y2="64.9476" gradientUnits="userSpaceOnUse">
<stop stop-color="#8C8C8C"/>
<stop offset="0.528846" stop-color="#616161"/>
<stop offset="0.798077" stop-color="#2B2B2B"/>
</linearGradient>
<linearGradient id="paint1_linear_801_399" x1="38.5839" y1="61.5123" x2="45.5057" y2="61.463" gradientUnits="userSpaceOnUse">
<stop offset="0.192308" stop-color="#D1E8FF"/>
<stop offset="0.788462" stop-color="#97C8FA"/>
</linearGradient>
<linearGradient id="paint2_linear_801_399" x1="30.5841" y1="74.5366" x2="37.5059" y2="74.4874" gradientUnits="userSpaceOnUse">
<stop offset="0.192308" stop-color="#D1E8FF"/>
<stop offset="0.788462" stop-color="#97C8FA"/>
</linearGradient>
<linearGradient id="paint3_linear_801_399" x1="45.5841" y1="73.5366" x2="52.5059" y2="73.4874" gradientUnits="userSpaceOnUse">
<stop offset="0.192308" stop-color="#D1E8FF"/>
<stop offset="0.788462" stop-color="#97C8FA"/>
</linearGradient>
</defs>
</svg>
