<svg width="83" height="86" viewBox="0 0 83 86" fill="none" xmlns="http://www.w3.org/2000/svg">
<g filter="url(#filter0_di_801_395)">
<path d="M68.6823 15.9066C66.9374 15.2722 65.0951 14.9476 63.2385 14.9476H59.3479C58.3288 14.9476 57.4798 14.1664 57.3951 13.1508L57.2948 11.9468C57.1321 9.99505 56.3707 8.14111 55.1147 6.6384C54.4069 5.79164 53.5571 5.07457 52.6033 4.5193L51.8585 4.08568C50.0061 3.00718 47.9365 2.35521 45.8003 2.1772L44.5095 2.06963C43.5344 1.98837 42.5546 1.97822 41.578 2.03926L38.5307 2.22971C36.2256 2.37378 33.9652 2.93112 31.8573 3.87513C29.6682 4.85547 27.6815 6.2359 25.9992 7.94546L24.9516 9.01001C23.6903 10.2917 22.6641 11.7852 21.92 13.4223C21.0137 15.416 20.5449 17.5807 20.5449 19.7707V21.3936C20.5449 21.6996 20.2969 21.9476 19.9909 21.9476C17.0671 21.9476 14.1834 22.6283 11.5682 23.9359L9.81991 24.8101C8.97374 25.2331 8.18845 25.7683 7.48526 26.4012C5.00657 28.632 3.73131 31.9053 4.04747 35.225L4.27326 37.5957C4.45128 39.465 5.11088 41.2562 6.18768 42.7945C7.39944 44.5256 9.1086 45.8731 11.0705 46.6578C12.3667 47.1763 13.7621 47.4476 15.1581 47.4476H46.5449H55.5449H65.7891C68.2467 47.4476 70.658 46.7797 72.7654 45.5153L72.942 45.4093C74.0044 44.7719 74.9636 43.9765 75.7867 43.0505C77.5752 41.0384 78.6488 38.4918 78.8407 35.8065L78.9521 34.2456C79.0139 33.3815 79.0087 32.514 78.9368 31.6508L78.7648 29.5864C78.6191 27.8379 78.2012 26.1229 77.5264 24.5033L77.3057 23.9735C76.4758 21.9819 75.2074 20.2032 73.5948 18.7697C72.2404 17.5659 70.6702 16.6295 68.9673 16.0103L68.6823 15.9066Z" fill="url(#paint0_linear_801_395)"/>
</g>
<g filter="url(#filter1_dd_801_395)">
<path d="M17.5734 52.9661C18.4387 52.9671 20.567 58.2399 20.5747 59.4818C20.5825 60.7237 19.9032 62.9917 17.609 63.006C15.3147 63.0203 14.5932 60.7184 14.5854 59.4765C14.5777 58.2346 16.2755 52.9645 17.5734 52.9661Z" fill="url(#paint1_linear_801_395)" style="mix-blend-mode:color-burn"/>
</g>
<g filter="url(#filter2_dd_801_395)">
<path d="M33.5734 52.9661C34.4387 52.9671 36.567 58.2399 36.5747 59.4818C36.5825 60.7237 35.9032 62.9917 33.609 63.006C31.3147 63.0203 30.5932 60.7184 30.5854 59.4765C30.5777 58.2346 32.2755 52.9645 33.5734 52.9661Z" fill="url(#paint2_linear_801_395)" style="mix-blend-mode:color-burn"/>
</g>
<g filter="url(#filter3_dd_801_395)">
<path d="M25.5734 65.9661C26.4387 65.9671 28.567 71.2399 28.5747 72.4818C28.5825 73.7237 27.9032 75.9917 25.609 76.006C23.3147 76.0203 22.5932 73.7184 22.5854 72.4765C22.5777 71.2346 24.2755 65.9645 25.5734 65.9661Z" fill="url(#paint3_linear_801_395)" style="mix-blend-mode:color-burn"/>
</g>
<g filter="url(#filter4_di_801_395)">
<path d="M61.0374 61.2918L60.8957 60.9992C60.7496 60.6978 60.6766 60.5471 60.5406 60.4703C60.4046 60.3935 60.2379 60.4088 59.9044 60.4394L59.3456 60.4907C58.5243 60.566 58.1137 60.6037 57.9489 60.353C57.7842 60.1024 57.9815 59.7404 58.3762 59.0163L58.6889 58.4426C58.829 58.1855 58.8991 58.0569 58.8972 57.9257C58.8964 57.8644 58.8842 57.8037 58.8614 57.7467C58.8125 57.6249 58.6984 57.5333 58.47 57.35C57.7989 56.8113 57.4633 56.542 57.4666 56.2981C57.468 56.1888 57.5052 56.0831 57.5725 55.9969C57.7226 55.8047 58.1529 55.8047 59.0135 55.8047H59.6885C59.978 55.8047 60.1227 55.8047 60.2407 55.7346C60.3588 55.6645 60.428 55.5375 60.5665 55.2833L60.8617 54.7418C61.2872 53.9611 61.5 53.5708 61.8116 53.5845C62.1233 53.5982 62.301 54.0057 62.6564 54.8207L62.8237 55.2044C62.9507 55.4957 63.0142 55.6413 63.139 55.723C63.2638 55.8047 63.4226 55.8047 63.7404 55.8047H64.3284C65.0907 55.8047 65.4718 55.8047 65.6212 55.9746C65.6999 56.0641 65.744 56.1788 65.7456 56.2979C65.7487 56.5241 65.4659 56.7796 64.9003 57.2906C64.6779 57.4916 64.5667 57.592 64.5252 57.7175C64.5026 57.7859 64.4951 57.8584 64.5031 57.93C64.5178 58.0614 64.6059 58.1826 64.7821 58.425L65.0461 58.7883C65.5508 59.4828 65.8032 59.8301 65.6641 60.1031C65.525 60.3762 65.0957 60.3762 64.2371 60.3762H63.9604C63.6851 60.3762 63.5475 60.3762 63.4332 60.4405C63.3189 60.5049 63.2476 60.6227 63.105 60.8581L62.7927 61.3738C62.3724 62.0679 62.1622 62.415 61.8652 62.4011C61.5682 62.3873 61.3912 62.0221 61.0374 61.2918Z" fill="url(#paint4_linear_801_395)" style="mix-blend-mode:color-burn"/>
</g>
<g filter="url(#filter5_di_801_395)">
<path d="M46.0374 61.2918L45.8957 60.9992C45.7496 60.6978 45.6766 60.5471 45.5406 60.4703C45.4046 60.3935 45.2379 60.4088 44.9044 60.4394L44.3456 60.4907C43.5243 60.566 43.1137 60.6037 42.9489 60.353C42.7842 60.1024 42.9815 59.7404 43.3762 59.0163L43.6889 58.4426C43.829 58.1855 43.8991 58.0569 43.8972 57.9257C43.8964 57.8644 43.8842 57.8037 43.8614 57.7467C43.8125 57.6249 43.6984 57.5333 43.47 57.35C42.7989 56.8113 42.4633 56.542 42.4666 56.2981C42.468 56.1888 42.5052 56.0831 42.5725 55.9969C42.7226 55.8047 43.1529 55.8047 44.0135 55.8047H44.6885C44.978 55.8047 45.1227 55.8047 45.2407 55.7346C45.3588 55.6645 45.428 55.5375 45.5665 55.2833L45.8617 54.7418C46.2872 53.9611 46.5 53.5708 46.8116 53.5845C47.1233 53.5982 47.301 54.0057 47.6564 54.8207L47.8237 55.2044C47.9507 55.4957 48.0142 55.6413 48.139 55.723C48.2638 55.8047 48.4226 55.8047 48.7404 55.8047H49.3284C50.0907 55.8047 50.4718 55.8047 50.6212 55.9746C50.6999 56.0641 50.744 56.1788 50.7456 56.2979C50.7487 56.5241 50.4659 56.7796 49.9003 57.2906C49.6779 57.4916 49.5667 57.592 49.5252 57.7175C49.5026 57.7859 49.4951 57.8584 49.5031 57.93C49.5178 58.0614 49.6059 58.1826 49.7821 58.425L50.0461 58.7883C50.5508 59.4828 50.8032 59.8301 50.6641 60.1031C50.525 60.3762 50.0957 60.3762 49.2371 60.3762H48.9604C48.6851 60.3762 48.5475 60.3762 48.4332 60.4405C48.3189 60.5049 48.2476 60.6227 48.105 60.8581L47.7927 61.3738C47.3724 62.0679 47.1622 62.415 46.8652 62.4011C46.5682 62.3873 46.3912 62.0221 46.0374 61.2918Z" fill="url(#paint5_linear_801_395)" style="mix-blend-mode:color-burn"/>
</g>
<g filter="url(#filter6_di_801_395)">
<path d="M54.0374 74.2918L53.8957 73.9992C53.7496 73.6978 53.6766 73.5471 53.5406 73.4703C53.4046 73.3935 53.2379 73.4088 52.9044 73.4394L52.3456 73.4907C51.5243 73.566 51.1137 73.6037 50.9489 73.353C50.7842 73.1024 50.9815 72.7404 51.3762 72.0163L51.6889 71.4426C51.829 71.1855 51.8991 71.0569 51.8972 70.9257C51.8964 70.8644 51.8842 70.8037 51.8614 70.7467C51.8125 70.6249 51.6984 70.5333 51.47 70.35C50.7989 69.8113 50.4633 69.542 50.4666 69.2981C50.468 69.1888 50.5052 69.0831 50.5725 68.9969C50.7226 68.8047 51.1529 68.8047 52.0135 68.8047H52.6885C52.978 68.8047 53.1227 68.8047 53.2407 68.7346C53.3588 68.6645 53.428 68.5375 53.5665 68.2833L53.8617 67.7418C54.2872 66.9611 54.5 66.5708 54.8116 66.5845C55.1233 66.5982 55.301 67.0057 55.6564 67.8207L55.8237 68.2044C55.9507 68.4957 56.0142 68.6413 56.139 68.723C56.2638 68.8047 56.4226 68.8047 56.7404 68.8047H57.3284C58.0907 68.8047 58.4718 68.8047 58.6212 68.9746C58.6999 69.0641 58.744 69.1788 58.7456 69.2979C58.7487 69.5241 58.4659 69.7796 57.9003 70.2906C57.6779 70.4916 57.5667 70.592 57.5252 70.7175C57.5026 70.7859 57.4951 70.8584 57.5031 70.93C57.5178 71.0614 57.6059 71.1826 57.7821 71.425L58.0461 71.7883C58.5508 72.4828 58.8032 72.8301 58.6641 73.1031C58.525 73.3762 58.0957 73.3762 57.2371 73.3762H56.9604C56.6851 73.3762 56.5475 73.3762 56.4332 73.4405C56.3189 73.5049 56.2476 73.6227 56.105 73.8581L55.7927 74.3738C55.3724 75.0679 55.1622 75.415 54.8652 75.4011C54.5682 75.3873 54.3912 75.0221 54.0374 74.2918Z" fill="url(#paint6_linear_801_395)" style="mix-blend-mode:color-burn"/>
</g>
<defs>
<filter id="filter0_di_801_395" x="0" y="0" width="82.9949" height="53.4476" filterUnits="userSpaceOnUse" color-interpolation-filters="sRGB">
<feFlood flood-opacity="0" result="BackgroundImageFix"/>
<feColorMatrix in="SourceAlpha" type="matrix" values="0 0 0 0 0 0 0 0 0 0 0 0 0 0 0 0 0 0 127 0" result="hardAlpha"/>
<feOffset dy="2"/>
<feGaussianBlur stdDeviation="2"/>
<feColorMatrix type="matrix" values="0 0 0 0 0 0 0 0 0 0 0 0 0 0 0 0 0 0 0.51 0"/>
<feBlend mode="normal" in2="BackgroundImageFix" result="effect1_dropShadow_801_395"/>
<feBlend mode="normal" in="SourceGraphic" in2="effect1_dropShadow_801_395" result="shape"/>
<feColorMatrix in="SourceAlpha" type="matrix" values="0 0 0 0 0 0 0 0 0 0 0 0 0 0 0 0 0 0 127 0" result="hardAlpha"/>
<feOffset dy="1"/>
<feGaussianBlur stdDeviation="1"/>
<feComposite in2="hardAlpha" operator="arithmetic" k2="-1" k3="1"/>
<feColorMatrix type="matrix" values="0 0 0 0 0 0 0 0 0 0 0 0 0 0 0 0 0 0 0.3 0"/>
<feBlend mode="normal" in2="shape" result="effect2_innerShadow_801_395"/>
</filter>
<filter id="filter1_dd_801_395" x="6.58539" y="46.9661" width="21.9894" height="26.04" filterUnits="userSpaceOnUse" color-interpolation-filters="sRGB">
<feFlood flood-opacity="0" result="BackgroundImageFix"/>
<feColorMatrix in="SourceAlpha" type="matrix" values="0 0 0 0 0 0 0 0 0 0 0 0 0 0 0 0 0 0 127 0" result="hardAlpha"/>
<feMorphology radius="2" operator="dilate" in="SourceAlpha" result="effect1_dropShadow_801_395"/>
<feOffset dy="2"/>
<feGaussianBlur stdDeviation="3"/>
<feColorMatrix type="matrix" values="0 0 0 0 0 0 0 0 0 0 0 0 0 0 0 0 0 0 0.15 0"/>
<feBlend mode="normal" in2="BackgroundImageFix" result="effect1_dropShadow_801_395"/>
<feColorMatrix in="SourceAlpha" type="matrix" values="0 0 0 0 0 0 0 0 0 0 0 0 0 0 0 0 0 0 127 0" result="hardAlpha"/>
<feOffset dy="1"/>
<feGaussianBlur stdDeviation="1"/>
<feColorMatrix type="matrix" values="0 0 0 0 0 0 0 0 0 0 0 0 0 0 0 0 0 0 0.3 0"/>
<feBlend mode="normal" in2="effect1_dropShadow_801_395" result="effect2_dropShadow_801_395"/>
<feBlend mode="normal" in="SourceGraphic" in2="effect2_dropShadow_801_395" result="shape"/>
</filter>
<filter id="filter2_dd_801_395" x="22.5854" y="46.9661" width="21.9894" height="26.04" filterUnits="userSpaceOnUse" color-interpolation-filters="sRGB">
<feFlood flood-opacity="0" result="BackgroundImageFix"/>
<feColorMatrix in="SourceAlpha" type="matrix" values="0 0 0 0 0 0 0 0 0 0 0 0 0 0 0 0 0 0 127 0" result="hardAlpha"/>
<feMorphology radius="2" operator="dilate" in="SourceAlpha" result="effect1_dropShadow_801_395"/>
<feOffset dy="2"/>
<feGaussianBlur stdDeviation="3"/>
<feColorMatrix type="matrix" values="0 0 0 0 0 0 0 0 0 0 0 0 0 0 0 0 0 0 0.15 0"/>
<feBlend mode="normal" in2="BackgroundImageFix" result="effect1_dropShadow_801_395"/>
<feColorMatrix in="SourceAlpha" type="matrix" values="0 0 0 0 0 0 0 0 0 0 0 0 0 0 0 0 0 0 127 0" result="hardAlpha"/>
<feOffset dy="1"/>
<feGaussianBlur stdDeviation="1"/>
<feColorMatrix type="matrix" values="0 0 0 0 0 0 0 0 0 0 0 0 0 0 0 0 0 0 0.3 0"/>
<feBlend mode="normal" in2="effect1_dropShadow_801_395" result="effect2_dropShadow_801_395"/>
<feBlend mode="normal" in="SourceGraphic" in2="effect2_dropShadow_801_395" result="shape"/>
</filter>
<filter id="filter3_dd_801_395" x="14.5854" y="59.9661" width="21.9894" height="26.04" filterUnits="userSpaceOnUse" color-interpolation-filters="sRGB">
<feFlood flood-opacity="0" result="BackgroundImageFix"/>
<feColorMatrix in="SourceAlpha" type="matrix" values="0 0 0 0 0 0 0 0 0 0 0 0 0 0 0 0 0 0 127 0" result="hardAlpha"/>
<feMorphology radius="2" operator="dilate" in="SourceAlpha" result="effect1_dropShadow_801_395"/>
<feOffset dy="2"/>
<feGaussianBlur stdDeviation="3"/>
<feColorMatrix type="matrix" values="0 0 0 0 0 0 0 0 0 0 0 0 0 0 0 0 0 0 0.15 0"/>
<feBlend mode="normal" in2="BackgroundImageFix" result="effect1_dropShadow_801_395"/>
<feColorMatrix in="SourceAlpha" type="matrix" values="0 0 0 0 0 0 0 0 0 0 0 0 0 0 0 0 0 0 127 0" result="hardAlpha"/>
<feOffset dy="1"/>
<feGaussianBlur stdDeviation="1"/>
<feColorMatrix type="matrix" values="0 0 0 0 0 0 0 0 0 0 0 0 0 0 0 0 0 0 0.3 0"/>
<feBlend mode="normal" in2="effect1_dropShadow_801_395" result="effect2_dropShadow_801_395"/>
<feBlend mode="normal" in="SourceGraphic" in2="effect2_dropShadow_801_395" result="shape"/>
</filter>
<filter id="filter4_di_801_395" x="54.4666" y="51.5841" width="14.2791" height="14.8174" filterUnits="userSpaceOnUse" color-interpolation-filters="sRGB">
<feFlood flood-opacity="0" result="BackgroundImageFix"/>
<feColorMatrix in="SourceAlpha" type="matrix" values="0 0 0 0 0 0 0 0 0 0 0 0 0 0 0 0 0 0 127 0" result="hardAlpha"/>
<feOffset dy="1"/>
<feGaussianBlur stdDeviation="1.5"/>
<feColorMatrix type="matrix" values="0 0 0 0 0 0 0 0 0 0 0 0 0 0 0 0 0 0 0.3 0"/>
<feBlend mode="normal" in2="BackgroundImageFix" result="effect1_dropShadow_801_395"/>
<feBlend mode="normal" in="SourceGraphic" in2="effect1_dropShadow_801_395" result="shape"/>
<feColorMatrix in="SourceAlpha" type="matrix" values="0 0 0 0 0 0 0 0 0 0 0 0 0 0 0 0 0 0 127 0" result="hardAlpha"/>
<feOffset dy="4"/>
<feGaussianBlur stdDeviation="4"/>
<feComposite in2="hardAlpha" operator="arithmetic" k2="-1" k3="1"/>
<feColorMatrix type="matrix" values="0 0 0 0 0 0 0 0 0 0 0 0 0 0 0 0 0 0 0.15 0"/>
<feBlend mode="normal" in2="shape" result="effect2_innerShadow_801_395"/>
</filter>
<filter id="filter5_di_801_395" x="39.4666" y="51.5841" width="14.2791" height="14.8174" filterUnits="userSpaceOnUse" color-interpolation-filters="sRGB">
<feFlood flood-opacity="0" result="BackgroundImageFix"/>
<feColorMatrix in="SourceAlpha" type="matrix" values="0 0 0 0 0 0 0 0 0 0 0 0 0 0 0 0 0 0 127 0" result="hardAlpha"/>
<feOffset dy="1"/>
<feGaussianBlur stdDeviation="1.5"/>
<feColorMatrix type="matrix" values="0 0 0 0 0 0 0 0 0 0 0 0 0 0 0 0 0 0 0.3 0"/>
<feBlend mode="normal" in2="BackgroundImageFix" result="effect1_dropShadow_801_395"/>
<feBlend mode="normal" in="SourceGraphic" in2="effect1_dropShadow_801_395" result="shape"/>
<feColorMatrix in="SourceAlpha" type="matrix" values="0 0 0 0 0 0 0 0 0 0 0 0 0 0 0 0 0 0 127 0" result="hardAlpha"/>
<feOffset dy="4"/>
<feGaussianBlur stdDeviation="4"/>
<feComposite in2="hardAlpha" operator="arithmetic" k2="-1" k3="1"/>
<feColorMatrix type="matrix" values="0 0 0 0 0 0 0 0 0 0 0 0 0 0 0 0 0 0 0.15 0"/>
<feBlend mode="normal" in2="shape" result="effect2_innerShadow_801_395"/>
</filter>
<filter id="filter6_di_801_395" x="47.4666" y="64.5841" width="14.2791" height="14.8174" filterUnits="userSpaceOnUse" color-interpolation-filters="sRGB">
<feFlood flood-opacity="0" result="BackgroundImageFix"/>
<feColorMatrix in="SourceAlpha" type="matrix" values="0 0 0 0 0 0 0 0 0 0 0 0 0 0 0 0 0 0 127 0" result="hardAlpha"/>
<feOffset dy="1"/>
<feGaussianBlur stdDeviation="1.5"/>
<feColorMatrix type="matrix" values="0 0 0 0 0 0 0 0 0 0 0 0 0 0 0 0 0 0 0.3 0"/>
<feBlend mode="normal" in2="BackgroundImageFix" result="effect1_dropShadow_801_395"/>
<feBlend mode="normal" in="SourceGraphic" in2="effect1_dropShadow_801_395" result="shape"/>
<feColorMatrix in="SourceAlpha" type="matrix" values="0 0 0 0 0 0 0 0 0 0 0 0 0 0 0 0 0 0 127 0" result="hardAlpha"/>
<feOffset dy="4"/>
<feGaussianBlur stdDeviation="4"/>
<feComposite in2="hardAlpha" operator="arithmetic" k2="-1" k3="1"/>
<feColorMatrix type="matrix" values="0 0 0 0 0 0 0 0 0 0 0 0 0 0 0 0 0 0 0.15 0"/>
<feBlend mode="normal" in2="shape" result="effect2_innerShadow_801_395"/>
</filter>
<linearGradient id="paint0_linear_801_395" x1="41.2949" y1="1.94758" x2="41.2949" y2="47.4476" gradientUnits="userSpaceOnUse">
<stop stop-color="#8C8C8C"/>
<stop offset="0.528846" stop-color="#616161"/>
<stop offset="0.798077" stop-color="#2B2B2B"/>
</linearGradient>
<linearGradient id="paint1_linear_801_395" x1="14.5762" y1="58.0049" x2="20.5653" y2="57.9675" gradientUnits="userSpaceOnUse">
<stop offset="0.192308" stop-color="#D1E8FF"/>
<stop offset="0.788462" stop-color="#97C8FA"/>
</linearGradient>
<linearGradient id="paint2_linear_801_395" x1="30.5762" y1="58.0049" x2="36.5653" y2="57.9675" gradientUnits="userSpaceOnUse">
<stop offset="0.192308" stop-color="#D1E8FF"/>
<stop offset="0.788462" stop-color="#97C8FA"/>
</linearGradient>
<linearGradient id="paint3_linear_801_395" x1="22.5762" y1="71.0049" x2="28.5653" y2="70.9675" gradientUnits="userSpaceOnUse">
<stop offset="0.192308" stop-color="#D1E8FF"/>
<stop offset="0.788462" stop-color="#97C8FA"/>
</linearGradient>
<linearGradient id="paint4_linear_801_395" x1="61.3724" y1="52.9476" x2="61.3724" y2="62.9476" gradientUnits="userSpaceOnUse">
<stop stop-color="white"/>
<stop offset="0.307692" stop-color="#D4E9FF"/>
<stop offset="0.692308" stop-color="#DFEFFF"/>
<stop offset="1" stop-color="#9FCEFF"/>
</linearGradient>
<linearGradient id="paint5_linear_801_395" x1="46.3724" y1="52.9476" x2="46.3724" y2="62.9476" gradientUnits="userSpaceOnUse">
<stop stop-color="white"/>
<stop offset="0.307692" stop-color="#D4E9FF"/>
<stop offset="0.692308" stop-color="#DFEFFF"/>
<stop offset="1" stop-color="#9FCEFF"/>
</linearGradient>
<linearGradient id="paint6_linear_801_395" x1="54.3724" y1="65.9476" x2="54.3724" y2="75.9476" gradientUnits="userSpaceOnUse">
<stop stop-color="white"/>
<stop offset="0.307692" stop-color="#D4E9FF"/>
<stop offset="0.692308" stop-color="#DFEFFF"/>
<stop offset="1" stop-color="#9FCEFF"/>
</linearGradient>
</defs>
</svg>
