<svg width="16" height="16" viewBox="0 0 16 16" fill="none" xmlns="http://www.w3.org/2000/svg">
<path fill-rule="evenodd" clip-rule="evenodd" d="M8.8889 10.6667C7.88294 11.5165 7.19774 11.5556 5.77778 11.5556C2.5868 11.5556 0 8.96876 0 5.77778C0 2.5868 2.5868 0 5.77778 0C8.96876 0 11.5556 2.5868 11.5556 5.77778C11.5556 7.19774 11.5165 7.88294 10.6667 8.8889L11.1752 9.33334L15.7457 13.9039C16.0848 14.2429 16.0848 14.7927 15.7457 15.1317L15.1317 15.7457C14.7927 16.0848 14.2429 16.0848 13.9039 15.7457L9.33334 11.1752L8.8889 10.6667ZM10.6667 5.77778C10.6667 8.47783 8.47783 10.6667 5.77778 10.6667C3.07774 10.6667 0.88889 8.47783 0.88889 5.77778C0.88889 3.07774 3.07774 0.88889 5.77778 0.88889C8.47783 0.88889 10.6667 3.07774 10.6667 5.77778ZM13.6062 13.5944C13.7635 13.4323 13.7637 13.1746 13.6068 13.0121L10.6667 9.96792L10.6434 9.96293C10.2459 9.87791 9.89796 10.2411 10 10.6346L13.0119 13.6012C13.1775 13.7643 13.4443 13.7613 13.6062 13.5944ZM14.2246 14.2335C14.0683 14.3947 14.0685 14.6533 14.2272 14.812C14.3877 14.9725 14.6497 14.9707 14.8102 14.8102C14.9707 14.6497 14.9725 14.3877 14.812 14.2272C14.6498 14.065 14.3843 14.0689 14.2246 14.2335Z" fill="white"/>
</svg>
