<svg width="24" height="24" viewBox="0 0 24 24" fill="none" xmlns="http://www.w3.org/2000/svg">
<path d="M22.9535 12.7857C22.6927 12.7857 22.4319 12.6813 22.2232 12.4988L12 2.51019L1.77676 12.4988C1.35948 12.89 0.707491 12.89 0.290215 12.4727C-0.10098 12.0554 -0.10098 11.4034 0.316295 10.9861L11.2698 0.293399C11.687 -0.0977995 12.313 -0.0977995 12.7302 0.293399L23.6837 10.9861C24.101 11.3773 24.101 12.0554 23.7098 12.4727C23.5011 12.6813 23.2143 12.7857 22.9535 12.7857ZM20.6585 22.9568V12.7596C20.6585 12.1858 20.189 11.7164 19.6153 11.7164C19.0415 11.7164 18.5721 12.1858 18.5721 12.7596V21.9136H15.3121V16.3325C15.3121 15.5762 14.6862 14.9503 13.9299 14.9503H10.0701C9.31379 14.9503 8.68788 15.5762 8.68788 16.3325V21.9136H5.42792V12.7596C5.42792 12.1858 4.95848 11.7164 4.38473 11.7164C3.81097 11.7164 3.34154 12.1858 3.34154 12.7596V22.9568C3.34154 23.5306 3.81097 24 4.38473 24H9.73107C10.3048 24 10.7743 23.5306 10.7743 22.9568V17.0367H13.2518V22.9568C13.2518 23.5306 13.7213 24 14.295 24H19.6414C20.2151 24 20.6585 23.5306 20.6585 22.9568Z" fill="#727272"/>
</svg>
